<?xml version="1.0" encoding="UTF-8" standalone="no"?>
<!-- Created with Inkscape (http://www.inkscape.org/) -->

<svg
   xmlns:dc="http://purl.org/dc/elements/1.1/"
   xmlns:cc="http://creativecommons.org/ns#"
   xmlns:rdf="http://www.w3.org/1999/02/22-rdf-syntax-ns#"
   xmlns:svg="http://www.w3.org/2000/svg"
   xmlns="http://www.w3.org/2000/svg"
   xmlns:sodipodi="http://sodipodi.sourceforge.net/DTD/sodipodi-0.dtd"
   xmlns:inkscape="http://www.inkscape.org/namespaces/inkscape"
   width="513"
   height="513"
   viewBox="0 0 513 513"
   version="1.1"
   id="svg8"
   inkscape:version="0.92.4 (5da689c313, 2019-01-14)"
   sodipodi:docname="U+4F73.svg">
  <defs
     id="defs2" />
  <sodipodi:namedview
     id="base"
     pagecolor="#ffffff"
     bordercolor="#666666"
     borderopacity="1.0"
     inkscape:pageopacity="0.0"
     inkscape:pageshadow="2"
     inkscape:zoom="1.7354414"
     inkscape:cx="154.27715"
     inkscape:cy="299.03898"
     inkscape:document-units="px"
     inkscape:current-layer="layer1"
     showgrid="false"
     units="px"
     inkscape:window-width="1920"
     inkscape:window-height="1017"
     inkscape:window-x="-8"
     inkscape:window-y="-8"
     inkscape:window-maximized="1">
    <inkscape:grid
       type="xygrid"
       id="grid3724" />
  </sodipodi:namedview>
  <metadata
     id="metadata5">
    <rdf:RDF>
      <cc:Work
         rdf:about="">
        <dc:format>image/svg+xml</dc:format>
        <dc:type
           rdf:resource="http://purl.org/dc/dcmitype/StillImage" />
        <dc:title></dc:title>
      </cc:Work>
    </rdf:RDF>
  </metadata>
  <g
     inkscape:label="圖層 1"
     inkscape:groupmode="layer"
     id="layer1"
     transform="translate(0,-161.26874)">
    <path
       style="fill:#000000;stroke:none;stroke-width:1px;stroke-linecap:butt;stroke-linejoin:miter;stroke-opacity:1;fill-opacity:1"
       d="M 148.08913,261.11736 C 148.08913,261.11736 171.71424,262.84602 150.39402,286.47114 129.07379,310.09625 69.146675,372.32826 69.146675,372.32826 L 16.710446,424.18827 C 16.710446,424.18827 8.0671121,421.30715 12.67689,413.81626 17.286669,406.32537 3.4573338,412.0876 1.7286669,416.12115 0,420.15471 1.1524446,448.3896 1.1524446,448.3896 1.1524446,448.3896 19.591558,441.47493 25.930003,427.06938 32.268448,412.66382 68.570453,402.29182 68.570453,402.29182 L 195.91558,297.99558 C 195.91558,297.99558 212.62603,288.77603 191.88202,268.03202 171.13802,247.28802 164.22335,236.91602 164.22335,236.91602 164.22335,236.91602 136.56468,244.98313 142.32691,258.23624 148.08913,271.48936 148.08913,261.11736 148.08913,261.11736 Z"
       id="path4621"
       inkscape:connector-curvature="0" />
    <path
       style="fill:#000000;stroke:none;stroke-width:1px;stroke-linecap:butt;stroke-linejoin:miter;stroke-opacity:1;fill-opacity:1"
       d="M 130.22624,368.87093 C 130.22624,372.32826 143.47935,387.31004 133.68357,433.40782 123.88779,479.50561 109.48224,569.39628 109.48224,569.39628 109.48224,569.39628 114.66824,598.2074 124.46402,594.17384 134.25979,590.14029 138.29335,542.89006 138.29335,542.89006 L 146.36046,464.52383 163.07091,403.44426 C 163.07091,403.44426 153.85135,362.53248 145.20802,369.44715 136.56468,376.36182 132.53113,367.71848 132.53113,367.71848 Z"
       id="path4623"
       inkscape:connector-curvature="0" />
    <path
       style="fill:#000000;stroke:none;stroke-width:1px;stroke-linecap:butt;stroke-linejoin:miter;stroke-opacity:1;fill-opacity:1"
       d="M 310.58382,213.29091 C 310.58382,216.74824 341.1236,250.16913 338.81871,257.66002 336.51382,265.15091 328.44671,319.31581 328.44671,319.31581 L 299.63559,327.38292 C 299.63559,327.38292 265.06225,317.01092 266.2147,325.07803 267.36714,333.14514 258.72381,341.21226 258.72381,341.21226 258.72381,341.21226 303.66915,368.2947 307.12648,359.65137 310.58382,351.00803 334.20893,342.3647 332.48026,359.07515 330.7516,375.78559 337.66626,397.68204 337.66626,397.68204 L 297.90692,404.02049 224.15047,425.34071 C 224.15047,425.34071 194.76313,423.61204 197.06802,418.42604 199.37291,413.24004 196.4918,441.47493 196.4918,441.47493 L 217.2358,447.81338 C 217.2358,447.81338 228.76025,454.15182 247.77559,442.05116 266.79092,429.95049 339.97115,412.66382 344.58093,411.51137 349.19071,410.35893 448.87717,404.59671 448.87717,404.59671 448.87717,404.59671 484.60295,413.81626 489.21273,410.93515 493.8225,408.05404 494.39873,399.98693 482.29806,390.19115 470.19739,380.39537 450.60583,381.54782 450.60583,381.54782 450.60583,381.54782 418.91361,393.64848 411.99894,387.31004 405.08427,380.97159 343.42849,400.56315 348.61449,394.22471 353.80049,387.88626 344.58093,338.33114 353.80049,336.02625 363.02004,333.72137 401.05072,323.92559 401.05072,323.92559 401.05072,323.92559 431.01427,319.31581 428.13316,312.40114 425.25205,305.48647 400.47449,292.23336 397.59338,299.14803 394.71227,306.0627 346.88582,323.34936 351.4956,317.58714 356.10538,311.82492 353.80049,282.43758 357.83404,280.13269 361.8676,277.8278 370.51093,266.87958 366.47738,253.62647 362.44382,240.37335 324.98937,209.83357 324.98937,209.83357 L 311.16004,202.9189 Z"
       id="path4625"
       inkscape:connector-curvature="0" />
    <path
       style="fill:#000000;stroke:none;stroke-width:1px;stroke-linecap:butt;stroke-linejoin:miter;stroke-opacity:1;fill-opacity:1"
       d="M 334.78515,459.91405 337.09004,471.43849 297.3307,476.62449 274.28181,484.11538 C 274.28181,484.11538 249.50425,480.65805 251.80914,491.60627 254.11403,502.5545 271.4007,513.50272 280.62026,513.50272 289.83981,513.50272 307.7027,492.75872 307.7027,492.75872 307.7027,492.75872 338.81871,480.08183 341.1236,482.38672 343.42849,484.69161 349.76693,542.31384 352.64804,541.16139 355.52915,540.00895 269.67203,552.10961 269.67203,552.10961 L 246.62314,556.71939 214.35469,549.80472 C 214.35469,549.80472 208.01625,564.7865 210.32114,565.93895 212.62603,567.09139 255.26648,587.25917 255.26648,587.25917 255.26648,587.25917 265.63848,569.97251 272.55314,569.97251 279.46781,569.97251 388.95005,556.71939 394.13605,554.4145 399.32205,552.10961 443.11494,561.90539 443.11494,561.90539 443.11494,561.90539 454.63939,569.97251 459.82539,567.66762 465.01139,565.36273 476.53584,557.87184 468.46872,545.77117 460.40161,533.6705 418.33738,530.78939 418.33738,530.78939 L 360.13893,542.31384 C 360.13893,542.31384 371.66338,493.33494 367.62982,483.53916 363.59627,473.74338 398.1696,477.77694 404.50805,476.04827 410.84649,474.3196 431.01427,472.59094 431.01427,472.59094 431.01427,472.59094 448.87717,464.52383 435.04783,457.60916 421.2185,450.69449 403.3556,446.08471 399.32205,448.3896 395.28849,450.69449 392.40738,457.60916 392.40738,457.60916 L 369.93471,462.21894 342.27604,433.40782 324.98937,431.10293 316.34604,446.08471 C 316.34604,446.08471 322.68448,449.54205 326.14182,449.54205 329.59915,449.54205 334.78515,459.91405 334.78515,459.91405 Z"
       id="path4627"
       inkscape:connector-curvature="0"
       sodipodi:nodetypes="ccccsscsccccccsscssccsscsccccccscc" />
  </g>
</svg>
