<?xml version="1.0" encoding="UTF-8" standalone="no"?>
<!-- Created with Inkscape (http://www.inkscape.org/) -->

<svg
   xmlns:dc="http://purl.org/dc/elements/1.1/"
   xmlns:cc="http://creativecommons.org/ns#"
   xmlns:rdf="http://www.w3.org/1999/02/22-rdf-syntax-ns#"
   xmlns:svg="http://www.w3.org/2000/svg"
   xmlns="http://www.w3.org/2000/svg"
   xmlns:sodipodi="http://sodipodi.sourceforge.net/DTD/sodipodi-0.dtd"
   xmlns:inkscape="http://www.inkscape.org/namespaces/inkscape"
   width="513"
   height="513"
   viewBox="0 0 513 513"
   version="1.1"
   id="svg8"
   inkscape:version="0.92.4 (5da689c313, 2019-01-14)"
   sodipodi:docname="U+5229.svg">
  <defs
     id="defs2" />
  <sodipodi:namedview
     id="base"
     pagecolor="#ffffff"
     bordercolor="#666666"
     borderopacity="1.0"
     inkscape:pageopacity="0.0"
     inkscape:pageshadow="2"
     inkscape:zoom="1.23"
     inkscape:cx="267.88618"
     inkscape:cy="291.25842"
     inkscape:document-units="px"
     inkscape:current-layer="layer1"
     showgrid="false"
     units="px"
     inkscape:window-width="1920"
     inkscape:window-height="1017"
     inkscape:window-x="-8"
     inkscape:window-y="-8"
     inkscape:window-maximized="1">
    <inkscape:grid
       type="xygrid"
       id="grid3724" />
  </sodipodi:namedview>
  <metadata
     id="metadata5">
    <rdf:RDF>
      <cc:Work
         rdf:about="">
        <dc:format>image/svg+xml</dc:format>
        <dc:type
           rdf:resource="http://purl.org/dc/dcmitype/StillImage" />
        <dc:title></dc:title>
      </cc:Work>
    </rdf:RDF>
  </metadata>
  <g
     inkscape:label="圖層 1"
     inkscape:groupmode="layer"
     id="layer1"
     transform="translate(0,-161.26874)">
    <path
       style="fill:#000000;stroke:none;stroke-width:1px;stroke-linecap:butt;stroke-linejoin:miter;stroke-opacity:1;fill-opacity:1"
       d="M 186.99187,207.60207 C 186.99187,207.60207 207.31707,219.7972 207.31707,227.92728 207.31707,236.05736 129.26829,258.82159 129.26829,258.82159 129.26829,258.82159 130.89431,265.32565 143.90244,263.69963 156.91057,262.07362 232.52033,242.56142 232.52033,242.56142 L 241.46341,243.37443 234.95935,225.48825 218.69919,214.91915 C 218.69919,214.91915 208.94309,196.21996 194.30894,200.285 179.6748,204.35004 186.99187,207.60207 186.99187,207.60207 Z"
       id="path3726"
       inkscape:connector-curvature="0" />
    <path
       style="fill:#000000;stroke:none;stroke-width:1px;stroke-linecap:butt;stroke-linejoin:miter;stroke-opacity:1;fill-opacity:1"
       d="M 165.85366,275.89476 C 165.85366,275.89476 184.55285,299.47199 174.79675,303.53703 165.04065,307.60207 14.634146,347.43947 14.634146,347.43947 L -3.2520325,350.6915 0,365.32565 C 0,365.32565 14.634146,371.82972 20.325203,371.82972 26.01626,371.82972 37.398374,349.8785 52.03252,353.13053 66.666667,356.38256 173.17073,311.66711 173.17073,311.66711 173.17073,311.66711 180.4878,322.23622 173.98374,332.80533 167.47967,343.37443 136.58537,382.39882 136.58537,382.39882 136.58537,382.39882 85.365854,436.05736 76.422764,431.99232 67.479675,427.92728 71.544715,441.74841 81.300813,443.37443 91.056911,445.00045 146.34146,402.72402 146.34146,402.72402 L 179.6748,367.76467 169.10569,472.64272 C 169.10569,472.64272 160.1626,477.52077 143.90244,465.32565 127.64228,453.13053 163.41463,540.93541 163.41463,540.93541 163.41463,540.93541 171.54472,543.37443 174.79675,519.7972 178.04878,496.21996 186.17886,481.58581 186.17886,481.58581 L 183.73984,371.01671 C 183.73984,371.01671 186.99187,366.95167 204.87805,384.83785 222.76423,402.72402 201.62602,397.84598 204.06504,405.16305 206.50407,412.48012 225.20325,413.29313 225.20325,413.29313 225.20325,413.29313 222.76423,371.82972 209.7561,372.64272 196.74797,373.45573 186.17886,358.00858 186.17886,358.00858 L 186.99187,312.48012 C 186.99187,312.48012 244.71545,302.72402 249.5935,306.78907 254.47154,310.85411 277.23577,303.53703 270.73171,301.09801 264.22764,298.65898 244.71545,288.90289 244.71545,288.90289 L 198.37398,301.91102 199.18699,282.39882 178.04878,269.39069 H 160.97561 Z"
       id="path3728"
       inkscape:connector-curvature="0" />
    <path
       style="fill:#000000;stroke:none;stroke-width:1px;stroke-linecap:butt;stroke-linejoin:miter;stroke-opacity:1;fill-opacity:1"
       d="M 289.43089,321.42321 C 289.43089,321.42321 291.86992,366.95167 302.43902,373.45573 313.00813,379.9598 334.14634,315.73215 334.14634,315.73215 L 307.31707,329.55329 Z"
       id="path3730"
       inkscape:connector-curvature="0" />
    <path
       style="fill:#000000;stroke:none;stroke-width:1px;stroke-linecap:butt;stroke-linejoin:miter;stroke-opacity:1;fill-opacity:1"
       d="M 369.9187,199.47199 C 374.79675,201.91102 411.38211,230.3663 403.25203,248.25248 395.12195,266.13866 386.99187,349.8785 386.99187,349.8785 L 395.12195,475.89476 C 395.12195,475.89476 395.12195,505.97606 394.30894,510.85411 393.49593,515.73215 383.73984,518.17118 383.73984,518.17118 L 372.35772,503.53703 C 372.35772,503.53703 352.84553,509.22809 363.41463,522.23622 373.98374,535.24435 387.80488,557.19557 387.80488,557.19557 387.80488,557.19557 400.81301,564.51264 404.06504,531.99232 407.31707,499.47199 405.69106,423.86224 404.06504,410.85411 402.43902,397.84598 406.50407,331.17931 406.50407,331.17931 L 421.13821,263.69963 434.14634,249.06549 410.56911,221.42321 385.36585,193.78093 372.35772,194.59394 Z"
       id="path3732"
       inkscape:connector-curvature="0" />
  </g>
</svg>
