<?xml version="1.0" encoding="UTF-8" standalone="no"?>
<!-- Created with Inkscape (http://www.inkscape.org/) -->

<svg
   xmlns:dc="http://purl.org/dc/elements/1.1/"
   xmlns:cc="http://creativecommons.org/ns#"
   xmlns:rdf="http://www.w3.org/1999/02/22-rdf-syntax-ns#"
   xmlns:svg="http://www.w3.org/2000/svg"
   xmlns="http://www.w3.org/2000/svg"
   xmlns:sodipodi="http://sodipodi.sourceforge.net/DTD/sodipodi-0.dtd"
   xmlns:inkscape="http://www.inkscape.org/namespaces/inkscape"
   width="514"
   height="518"
   viewBox="0 0 514 518.00002"
   version="1.1"
   id="svg8"
   inkscape:version="0.92.4 (5da689c313, 2019-01-14)"
   sodipodi:docname="U+702B.svg">
  <defs
     id="defs2" />
  <sodipodi:namedview
     id="base"
     pagecolor="#ffffff"
     bordercolor="#666666"
     borderopacity="1.0"
     inkscape:pageopacity="0.0"
     inkscape:pageshadow="2"
     inkscape:zoom="1.63"
     inkscape:cx="102.56106"
     inkscape:cy="287.96967"
     inkscape:document-units="px"
     inkscape:current-layer="layer1"
     showgrid="false"
     units="px"
     inkscape:window-width="1440"
     inkscape:window-height="838"
     inkscape:window-x="-8"
     inkscape:window-y="-8"
     inkscape:window-maximized="1">
    <inkscape:grid
       type="xygrid"
       id="grid3724" />
  </sodipodi:namedview>
  <metadata
     id="metadata5">
    <rdf:RDF>
      <cc:Work
         rdf:about="">
        <dc:format>image/svg+xml</dc:format>
        <dc:type
           rdf:resource="http://purl.org/dc/dcmitype/StillImage" />
        <dc:title></dc:title>
      </cc:Work>
    </rdf:RDF>
  </metadata>
  <g
     inkscape:label="圖層 1"
     inkscape:groupmode="layer"
     id="layer1"
     transform="translate(0,-604.51965)">
    <path
       style="fill:#000000;stroke:none;stroke-width:1px;stroke-linecap:butt;stroke-linejoin:miter;stroke-opacity:1;fill-opacity:1"
       d="M 135.77236,650.97493 140.65041,694.06436 101.62602,741.21884 63.414634,786.74729 27.642276,829.02372 21.95122,839.59282 4.8780488,855.03998 6.504065,857.479 27.642276,846.90989 82.926829,800.56843 91.869919,794.06437 C 91.869919,794.06437 108.13008,818.45461 108.13008,821.70664 108.13008,824.95867 107.31707,855.03998 107.31707,855.03998 L 105.69106,868.86111 C 105.69106,868.86111 103.25203,935.52778 99.186993,936.34078 95.121953,937.15379 88.617886,957.479 88.617886,957.479 H 83.739837 L 90.243902,967.2351 V 967.2351 C 90.243902,967.2351 111.38211,981.86924 115.44715,965.60908 119.5122,949.34892 123.57724,885.12128 123.57724,885.12128 L 127.64228,855.85298 C 127.64228,855.85298 132.52033,794.06437 99.186992,789.18632 65.853659,784.30827 99.186992,787.5603 99.186992,787.5603 L 139.02439,742.84485 170.73171,703.00745 C 170.73171,703.00745 174.79675,705.44648 167.47967,691.62534 160.1626,677.8042 141.46341,649.34892 141.46341,649.34892 L 135.77236,647.7229 Z"
       id="path3726"
       inkscape:connector-curvature="0"
       sodipodi:nodetypes="cccccccccccscccccccsccscccsccc" />
    <path
       style="fill:#000000;stroke:none;stroke-width:1px;stroke-linecap:butt;stroke-linejoin:miter;stroke-opacity:1;fill-opacity:1"
       d="M 234.95935,670.48713 223.57724,702.19445 C 223.57724,702.19445 164.22764,805.44648 154.47154,796.50339 144.71545,787.5603 156.09756,800.56843 156.09756,800.56843 L 180.4878,793.25136 217.88618,754.22697 254.47154,682.68225 257.72358,670.48713 229.26829,640.40583 222.76423,639.59282 226.82927,649.34892 Z"
       id="path3728"
       inkscape:connector-curvature="0" />
    <path
       style="fill:#000000;stroke:none;stroke-width:1px;stroke-linecap:butt;stroke-linejoin:miter;stroke-opacity:1;fill-opacity:1"
       d="M 271.54472,659.10502 300,678.61721 337.39837,711.13754 383.73984,747.7229 444.71545,795.69038 C 444.71545,795.69038 471.54472,801.38144 484.55285,796.50339 497.56098,791.62534 517.88618,783.49526 517.88618,783.49526 L 514.63415,774.55217 C 514.63415,774.55217 447.96748,759.91802 447.15447,755.85298 446.34146,751.78794 383.73984,733.90176 367.47967,714.38957 351.21951,694.87737 282.11382,662.35705 283.73984,654.22697 285.36585,646.09689 260.68984,651.50621 260.68984,651.50621 Z"
       id="path3730"
       inkscape:connector-curvature="0"
       sodipodi:nodetypes="cccccsccssccc" />
    <path
       style="fill:none;stroke:#000000;stroke-width:1px;stroke-linecap:butt;stroke-linejoin:miter;stroke-opacity:1"
       d="M 217.88618,754.22697 V 754.22697"
       id="path3732"
       inkscape:connector-curvature="0" />
    <path
       style="fill:#000000;stroke:none;stroke-width:1px;stroke-linecap:butt;stroke-linejoin:miter;stroke-opacity:1;fill-opacity:1"
       d="M 287.73006,742.76505 315.95092,736.63008 C 315.95092,736.63008 335.58282,746.44603 326.99387,750.74051 318.40491,755.03499 244.17178,772.8264 244.17178,772.8264 L 221.47239,766.07793 217.88618,754.22697 231.28834,757.48898 Z"
       id="path3734"
       inkscape:connector-curvature="0" />
    <path
       style="fill:#000000;stroke:none;stroke-width:1px;stroke-linecap:butt;stroke-linejoin:miter;stroke-opacity:1;fill-opacity:1"
       d="M 155.21472,821.90615 C 155.21472,821.90615 182.20859,841.53805 186.50307,864.23744 190.79755,886.93683 193.86503,924.97364 193.86503,924.97364 193.86503,924.97364 207.97546,933.56259 207.36196,925.58713 206.74847,917.61167 204.29448,862.39695 204.29448,862.39695 204.29448,862.39695 188.95706,826.81413 173.00613,821.29266 157.05521,815.77118 155.21472,821.90615 155.21472,821.90615 Z"
       id="path3736"
       inkscape:connector-curvature="0" />
    <path
       style="fill:#000000;stroke:none;stroke-width:1px;stroke-linecap:butt;stroke-linejoin:miter;stroke-opacity:1;fill-opacity:1"
       d="M 196.31902,808.40922 206.13497,824.36014 223.31288,823.74664 H 232.51534 C 232.51534,823.74664 258.28221,853.80799 244.17178,863.01045 230.06135,872.2129 219.0184,864.85094 219.0184,864.85094 L 215.33742,869.75891 225.15337,875.89388 241.71779,875.28039 C 241.71779,875.28039 253.37423,909.02272 247.85276,909.63621 242.33129,910.24971 258.28221,912.0902 258.28221,912.0902 L 262.57669,897.36628 256.44172,867.91842 293.25153,869.75891 288.95706,911.47671 C 288.95706,911.47671 289.57055,925.58713 295.09202,927.42763 300.6135,929.26812 306.74847,923.74664 306.13497,919.45217 305.52147,915.15769 309.81595,863.62394 309.81595,863.62394 H 326.99387 L 334.35583,857.48898 331.90184,851.35401 309.81595,851.9675 280.9816,855.03499 260.7362,858.71597 C 260.7362,858.71597 255.82822,820.06566 253.37423,820.06566 250.92025,820.06566 274.84663,813.3172 274.84663,813.3172 L 309.20245,805.95523 341.71779,799.20677 C 341.71779,799.20677 361.34969,788.77732 355.82822,818.83867 350.30675,848.90002 343.55828,907.79572 343.55828,907.79572 343.55828,907.79572 331.28834,910.24971 331.28834,913.93069 331.28834,917.61167 346.62577,951.35401 349.07975,947.05953 351.53374,942.76505 361.96319,942.15155 361.96319,936.63008 361.96319,931.10861 365.64417,897.36628 366.87117,893.0718 368.09816,888.77732 369.32515,840.31106 373.61963,839.69756 377.91411,839.08407 384.04908,822.51965 384.04908,822.51965 384.04908,822.51965 394.47853,807.18223 380.3681,799.82026 366.25767,792.4583 362.57669,779.57486 354.60123,780.18836 346.62577,780.80186 337.42331,784.48284 337.42331,784.48284 337.42331,784.48284 330.06135,792.4583 326.38037,791.23131 322.69939,790.00431 267.48466,800.43376 267.48466,800.43376 L 217.79141,805.95523 Z"
       id="path3738"
       inkscape:connector-curvature="0" />
    <path
       style="fill:#000000;stroke:none;stroke-width:1px;stroke-linecap:butt;stroke-linejoin:miter;stroke-opacity:1;fill-opacity:1"
       d="M 274.84663,813.3172 C 274.84663,813.3172 293.86503,839.08407 293.86503,845.21904 293.86503,851.35401 293.25153,869.75891 293.25153,869.75891 L 309.81595,863.62394 C 309.81595,863.62394 307.97546,840.31106 311.04294,837.24358 314.11043,834.17609 311.04294,810.24971 306.74847,810.24971 302.45399,810.24971 292.63804,804.11474 292.63804,804.11474 Z"
       id="path3740"
       inkscape:connector-curvature="0" />
  </g>
</svg>
