<?xml version="1.0" encoding="UTF-8" standalone="no"?>
<!-- Created with Inkscape (http://www.inkscape.org/) -->

<svg
   xmlns:dc="http://purl.org/dc/elements/1.1/"
   xmlns:cc="http://creativecommons.org/ns#"
   xmlns:rdf="http://www.w3.org/1999/02/22-rdf-syntax-ns#"
   xmlns:svg="http://www.w3.org/2000/svg"
   xmlns="http://www.w3.org/2000/svg"
   xmlns:sodipodi="http://sodipodi.sourceforge.net/DTD/sodipodi-0.dtd"
   xmlns:inkscape="http://www.inkscape.org/namespaces/inkscape"
   width="513"
   height="513"
   viewBox="0 0 513 513"
   version="1.1"
   id="svg8"
   inkscape:version="0.92.4 (5da689c313, 2019-01-14)"
   sodipodi:docname="U+7686.svg">
  <defs
     id="defs2" />
  <sodipodi:namedview
     id="base"
     pagecolor="#ffffff"
     bordercolor="#666666"
     borderopacity="1.0"
     inkscape:pageopacity="0.0"
     inkscape:pageshadow="2"
     inkscape:zoom="1.7447717"
     inkscape:cx="36.646296"
     inkscape:cy="253.59873"
     inkscape:document-units="px"
     inkscape:current-layer="layer1"
     showgrid="false"
     units="px"
     inkscape:window-width="1920"
     inkscape:window-height="1017"
     inkscape:window-x="-8"
     inkscape:window-y="-8"
     inkscape:window-maximized="1">
    <inkscape:grid
       type="xygrid"
       id="grid3724" />
  </sodipodi:namedview>
  <metadata
     id="metadata5">
    <rdf:RDF>
      <cc:Work
         rdf:about="">
        <dc:format>image/svg+xml</dc:format>
        <dc:type
           rdf:resource="http://purl.org/dc/dcmitype/StillImage" />
        <dc:title></dc:title>
      </cc:Work>
    </rdf:RDF>
  </metadata>
  <g
     inkscape:label="圖層 1"
     inkscape:groupmode="layer"
     id="layer1"
     transform="translate(0,-161.26874)">
    <path
       style="fill:#000000;stroke:none;stroke-width:1px;stroke-linecap:butt;stroke-linejoin:miter;stroke-opacity:1;fill-opacity:1"
       d="M 29.803326,239.2548 C 30.376467,241.54737 38.97358,252.43705 43.558708,256.44903 48.143835,260.46102 57.314089,294.27633 57.314089,294.27633 L 60.752934,341.84702 64.19178,359.61439 C 64.19178,359.61439 70.496329,369.93093 67.630625,370.50407 64.76492,371.07721 41.266144,380.8206 41.266144,380.8206 L 29.803326,379.10118 22.925636,387.6983 C 22.925636,387.6983 31.522749,413.48964 29.230185,415.7822 26.937622,418.07476 33.815312,423.80617 54.448384,419.79419 75.081456,415.7822 99.726515,385.97887 99.726515,385.97887 L 145.57779,344.71273 175.38111,318.92139 174.23483,316.62883 74.508316,367.63836 71.642611,363.05324 C 71.642611,363.05324 80.239724,340.1276 77.37402,319.49453 74.508316,298.86146 79.093443,287.97178 79.093443,287.97178 79.093443,287.97178 91.702542,293.70319 93.995106,294.27633 96.287669,294.84947 172.51541,274.78954 172.51541,274.78954 L 174.80797,271.92384 155.89432,259.88788 86.544274,275.36268 68.203766,270.77755 53.302103,250.14448 35.534735,239.2548 28.657044,233.5234 Z"
       id="path4600"
       inkscape:connector-curvature="0" />
    <path
       style="fill:#000000;stroke:none;stroke-width:1px;stroke-linecap:butt;stroke-linejoin:miter;stroke-opacity:1;fill-opacity:1"
       d="M 222.37866,199.13494 C 222.37866,199.13494 224.67123,213.46347 241.29231,236.3891 257.9134,259.31474 236.70719,310.32428 236.70719,310.32428 236.70719,310.32428 236.70719,334.39619 256.19398,344.71273 275.68077,355.02926 299.75268,344.71273 306.05723,346.43215 312.36178,348.15157 371.96844,367.06522 371.96844,367.06522 371.96844,367.06522 397.18664,367.06522 394.32093,347.57843 391.45523,328.09164 343.88453,334.39619 343.88453,334.39619 L 284.85102,322.36023 273.3882,321.78709 C 273.3882,321.78709 245.3043,318.92139 253.90141,293.70319 262.49853,268.48499 265.36423,232.37711 265.36423,232.37711 265.36423,232.37711 239.57289,205.43949 238.99975,202.57379 238.42661,199.70808 231.54892,191.11097 231.54892,191.11097 231.54892,191.11097 220.65924,192.25725 222.37866,199.13494 Z"
       id="path4602"
       inkscape:connector-curvature="0" />
    <path
       style="fill:#000000;stroke:none;stroke-width:1px;stroke-linecap:butt;stroke-linejoin:miter;stroke-opacity:1;fill-opacity:1"
       d="M 319.23948,247.85192 C 327.26345,244.98621 347.32338,239.2548 349.61594,239.2548 351.90851,239.2548 376.55356,251.8639 369.67587,258.16845 362.79818,264.473 324.97088,275.93582 324.97088,275.93582 H 307.20352 L 294.59442,265.04615 290.00929,251.8639 C 290.00929,251.8639 307.20352,258.16845 312.36178,255.87589 317.52005,253.58333 319.23948,247.85192 319.23948,247.85192 Z"
       id="path4604"
       inkscape:connector-curvature="0" />
    <path
       style="fill:#000000;stroke:none;stroke-width:1px;stroke-linecap:butt;stroke-linejoin:miter;stroke-opacity:1;fill-opacity:1"
       d="M 131.24926,408.33137 C 131.24926,410.62393 145.57779,431.257 155.32118,430.11072 165.06458,428.96444 198.87989,410.05079 198.87989,410.05079 L 230.97578,402.02682 C 230.97578,402.02682 251.03571,398.58797 239.57289,427.81816 228.11007,457.04834 244.15802,500.60705 238.42661,516.655 232.6952,532.70294 213.20841,532.1298 213.20841,532.1298 213.20841,532.1298 205.18444,521.81326 195.44104,524.67897 185.69765,527.54467 128.38356,537.28807 128.38356,537.28807 128.38356,537.28807 120.35959,536.71493 125.51785,505.76532 130.67612,474.81571 129.52984,453.03636 129.52984,453.03636 129.52984,453.03636 113.4819,410.62393 93.421965,417.50162 73.362034,424.37931 100.8728,433.54957 100.8728,433.54957 100.8728,433.54957 108.89677,457.04834 104.31164,496.02192 99.726515,534.9955 91.129401,567.66453 115.20132,562.50627 139.27324,557.348 186.27079,548.75089 189.13649,550.47031 192.0022,552.18973 214.35469,537.86121 225.24437,582.5662 236.13405,627.27119 248.74315,562.50627 248.74315,562.50627 248.74315,562.50627 257.34026,566.51825 256.19398,526.97153 255.0477,487.42481 257.34026,444.43924 260.20596,438.70783 263.07167,432.97643 256.19398,425.52559 267.6568,415.20906 279.11961,404.89252 237.85347,375.66234 227.53693,376.80862 217.2204,377.9549 187.99021,396.29541 185.12451,393.4297 182.2588,390.564 169.07656,403.74624 159.33317,402.02682 149.58977,400.3074 141.5658,398.58797 134.68811,403.74624 127.81042,408.90451 131.24926,408.33137 131.24926,408.33137 Z"
       id="path4606"
       inkscape:connector-curvature="0" />
    <path
       style="fill:#000000;stroke:none;stroke-width:1px;stroke-linecap:butt;stroke-linejoin:miter;stroke-opacity:1;fill-opacity:1"
       d="M 168.50342,469.0843 C 204.03816,453.03636 200.59931,452.46322 204.03816,453.03636 207.477,453.6095 224.67123,471.95001 213.20841,475.96199 201.74559,479.97398 168.50342,492.58308 166.21086,492.58308 163.91829,492.58308 138.58376,489.95174 149.58977,467.93802 162.81587,463.69305 143.76512,467.70995 168.50342,469.0843 Z"
       id="path4608"
       inkscape:connector-curvature="0"
       sodipodi:nodetypes="cssscc" />
  </g>
</svg>
