<?xml version="1.0" encoding="UTF-8" standalone="no"?>
<!-- Created with Inkscape (http://www.inkscape.org/) -->

<svg
   xmlns:dc="http://purl.org/dc/elements/1.1/"
   xmlns:cc="http://creativecommons.org/ns#"
   xmlns:rdf="http://www.w3.org/1999/02/22-rdf-syntax-ns#"
   xmlns:svg="http://www.w3.org/2000/svg"
   xmlns="http://www.w3.org/2000/svg"
   xmlns:sodipodi="http://sodipodi.sourceforge.net/DTD/sodipodi-0.dtd"
   xmlns:inkscape="http://www.inkscape.org/namespaces/inkscape"
   width="557"
   height="465"
   viewBox="0 0 557 465"
   version="1.1"
   id="svg8"
   inkscape:version="0.92.4 (5da689c313, 2019-01-14)"
   sodipodi:docname="U+7D1B.svg">
  <defs
     id="defs2" />
  <sodipodi:namedview
     id="base"
     pagecolor="#ffffff"
     bordercolor="#666666"
     borderopacity="1.0"
     inkscape:pageopacity="0.0"
     inkscape:pageshadow="2"
     inkscape:zoom="0.82106903"
     inkscape:cx="-19.895344"
     inkscape:cy="196.64149"
     inkscape:document-units="px"
     inkscape:current-layer="layer1"
     showgrid="false"
     units="px"
     inkscape:window-width="1440"
     inkscape:window-height="838"
     inkscape:window-x="-8"
     inkscape:window-y="-8"
     inkscape:window-maximized="1"
     viewbox-width="528.9"
     viewbox-x="0">
    <inkscape:grid
       type="xygrid"
       id="grid3724" />
  </sodipodi:namedview>
  <metadata
     id="metadata5">
    <rdf:RDF>
      <cc:Work
         rdf:about="">
        <dc:format>image/svg+xml</dc:format>
        <dc:type
           rdf:resource="http://purl.org/dc/dcmitype/StillImage" />
        <dc:title></dc:title>
      </cc:Work>
    </rdf:RDF>
  </metadata>
  <g
     inkscape:label="圖層 1"
     inkscape:groupmode="layer"
     id="layer1"
     transform="translate(0,-1239.3424)">
    <path
       style="fill:#000000;stroke:none;stroke-width:1px;stroke-linecap:butt;stroke-linejoin:miter;stroke-opacity:1;fill-opacity:1"
       d="M 112.04904,1295.1198 C 112.04904,1295.1198 142.49715,1323.1321 129.09999,1329.2217 115.70282,1335.3113 105.95942,1364.5415 105.95942,1364.5415 L 58.460371,1397.4255 36.537732,1390.1179 34.101883,1412.0406 37.755656,1424.2198 32.883959,1448.5783 46.281127,1453.45 68.203766,1425.4377 119.35659,1412.0406 75.511312,1459.5396 57.242446,1465.6292 47.499051,1481.4622 59.678295,1497.2953 93.780178,1477.8085 142.49715,1446.1424 107.17735,1457.1038 133.97168,1409.6047 154.6764,1393.7717 181.47073,1392.5538 188.77828,1374.2849 177.81696,1363.3236 161.98394,1366.9773 157.11225,1377.9387 124.22829,1397.4255 77.947161,1404.733 69.42169,1399.8613 77.947161,1390.1179 112.04904,1371.849 151.02262,1345.0547 C 151.02262,1345.0547 166.85564,1329.2217 160.76602,1325.5679 154.6764,1321.9141 151.02262,1301.2094 151.02262,1301.2094 L 140.0613,1293.9019 124.22829,1295.1198 Z"
       id="path4834"
       inkscape:connector-curvature="0" />
    <path
       style="fill:#000000;stroke:none;stroke-width:1px;stroke-linecap:butt;stroke-linejoin:miter;stroke-opacity:1;fill-opacity:1"
       d="M 172.94526,1426.6556 125.44621,1479.0264 C 125.44621,1479.0264 66.985841,1526.5254 62.114144,1527.7434 57.242446,1528.9613 37.755656,1539.9226 37.755656,1539.9226 L 13.397168,1550.8839 -1.2179244,1553.3198 -2.4358488,1577.6783 21.922639,1574.0245 C 21.922639,1574.0245 60.896219,1555.7556 65.767917,1555.7556 70.639615,1555.7556 98.651876,1546.0122 98.651876,1546.0122 L 148.58678,1542.3585 161.98394,1533.833 149.8047,1525.3075 H 115.70282 L 73.075463,1537.4868 81.600934,1522.8717 131.53583,1493.6415 171.72734,1463.1934 196.08583,1446.1424 C 196.08583,1446.1424 198.52168,1432.7453 191.21413,1432.7453 183.90658,1432.7453 172.94526,1426.6556 172.94526,1426.6556 Z"
       id="path4836"
       inkscape:connector-curvature="0" />
    <path
       style="fill:#000000;stroke:none;stroke-width:1px;stroke-linecap:butt;stroke-linejoin:miter;stroke-opacity:1;fill-opacity:1"
       d="M 280.12261,1289.0302 C 280.12261,1289.0302 292.30185,1324.35 284.99431,1332.8755 277.68676,1341.4009 235.05941,1385.2462 235.05941,1385.2462 L 220.44431,1404.733 194.8679,1414.4764 C 194.8679,1414.4764 164.41979,1438.8349 218.00847,1431.5273 246.09779,1427.4413 192.02179,1433.4346 244.8028,1413.2585 L 248.45658,1408.3868 232.62356,1405.9509 C 232.62356,1405.9509 244.8028,1388.9 250.89242,1388.9 256.98205,1388.9 291.08393,1358.4519 293.51978,1352.3623 295.95563,1346.2726 314.22449,1323.1321 304.4811,1317.0424 294.7377,1310.9528 288.64808,1285.3764 288.64808,1285.3764 Z"
       id="path4838"
       inkscape:connector-curvature="0"
       sodipodi:nodetypes="ccccccc" />
    <path
       style="fill:#000000;stroke:none;stroke-width:1px;stroke-linecap:butt;stroke-linejoin:miter;stroke-opacity:1;fill-opacity:1"
       d="M 295.95563,1399.8613 315.44242,1407.1689 C 315.44242,1407.1689 305.69902,1425.4377 294.7377,1433.9632 283.77638,1442.4887 252.11035,1469.283 252.11035,1469.283 L 219.22639,1474.1547 208.26507,1496.0773 191.21413,1514.3462 199.7396,1531.3971 253.32827,1489.9877 269.16129,1477.8085 313.00657,1474.1547 311.78864,1530.1792 297.17355,1581.332 275.25091,1575.2424 247.23865,1550.8839 233.84148,1535.0509 232.62356,1564.2811 260.63582,1612.9981 261.85374,1627.6132 276.46884,1631.2669 298.39148,1606.9085 315.44242,1581.332 321.53204,1521.6537 327.62166,1493.6415 337.36506,1472.9368 C 337.36506,1472.9368 328.83959,1457.1038 295.95563,1461.9755 263.07167,1466.8471 284.99431,1453.45 284.99431,1453.45 L 326.40374,1421.7839 C 326.40374,1421.7839 353.19807,1403.5151 347.10845,1394.9896 341.01883,1386.4641 320.31411,1382.8104 320.31411,1382.8104 Z"
       id="path4840"
       inkscape:connector-curvature="0" />
    <path
       style="fill:#000000;stroke:none;stroke-width:1px;stroke-linecap:butt;stroke-linejoin:miter;stroke-opacity:1;fill-opacity:1"
       d="M 401.91505,1440.0528 C 401.91505,1446.1424 457.93957,1520.4358 457.93957,1520.4358 L 490.82353,1525.3075 537.10466,1513.1283 509.09239,1498.5132 443.32448,1466.8471 Z"
       id="path4842"
       inkscape:connector-curvature="0" />
  </g>
</svg>
