<?xml version="1.0" encoding="UTF-8" standalone="no"?>
<!-- Created with Inkscape (http://www.inkscape.org/) -->

<svg
   xmlns:dc="http://purl.org/dc/elements/1.1/"
   xmlns:cc="http://creativecommons.org/ns#"
   xmlns:rdf="http://www.w3.org/1999/02/22-rdf-syntax-ns#"
   xmlns:svg="http://www.w3.org/2000/svg"
   xmlns="http://www.w3.org/2000/svg"
   xmlns:sodipodi="http://sodipodi.sourceforge.net/DTD/sodipodi-0.dtd"
   xmlns:inkscape="http://www.inkscape.org/namespaces/inkscape"
   width="513"
   height="513"
   viewBox="0 0 513 513"
   version="1.1"
   id="svg8"
   inkscape:version="0.92.4 (5da689c313, 2019-01-14)"
   sodipodi:docname="U+91CB.svg">
  <defs
     id="defs2" />
  <sodipodi:namedview
     id="base"
     pagecolor="#ffffff"
     bordercolor="#666666"
     borderopacity="1.0"
     inkscape:pageopacity="0.0"
     inkscape:pageshadow="2"
     inkscape:zoom="1.3182814"
     inkscape:cx="254.80096"
     inkscape:cy="255.1633"
     inkscape:document-units="px"
     inkscape:current-layer="layer1"
     showgrid="false"
     units="px"
     inkscape:window-width="1440"
     inkscape:window-height="838"
     inkscape:window-x="-8"
     inkscape:window-y="-8"
     inkscape:window-maximized="1"
     viewbox-width="528.9"
     viewbox-x="0">
    <inkscape:grid
       type="xygrid"
       id="grid3724" />
  </sodipodi:namedview>
  <metadata
     id="metadata5">
    <rdf:RDF>
      <cc:Work
         rdf:about="">
        <dc:format>image/svg+xml</dc:format>
        <dc:type
           rdf:resource="http://purl.org/dc/dcmitype/StillImage" />
        <dc:title></dc:title>
      </cc:Work>
    </rdf:RDF>
  </metadata>
  <g
     inkscape:label="圖層 1"
     inkscape:groupmode="layer"
     id="layer1"
     transform="translate(0,-1191.3424)">
    <path
       style="fill:#000000;stroke:none;stroke-width:1px;stroke-linecap:butt;stroke-linejoin:miter;stroke-opacity:1;fill-opacity:1"
       d="M 143.52445,1225.3063 162.16398,1244.8778 155.64015,1346.4633 151.91224,1357.647 131.40875,1360.4429 127.68084,1354.8511 123.02095,1330.6197 94.129669,1310.1162 71.762223,1303.5923 72.6942,1313.8441 104.38142,1342.7354 124.88491,1363.2389 97.857577,1370.6947 49.394777,1380.0144 27.027331,1378.1505 43.802915,1394.9261 64.306408,1385.6063 146.32038,1366.9668 147.25235,1376.2865 C 147.25235,1376.2865 105.31339,1428.4772 90.401762,1439.661 75.490131,1450.8447 50.326754,1470.4162 50.326754,1470.4162 L 40.075008,1473.2121 45.666869,1484.3958 68.966292,1478.804 C 68.966292,1478.804 102.51746,1456.4365 108.10932,1449.9127 113.70118,1443.3889 148.18433,1412.6336 148.18433,1412.6336 L 150.98026,1440.5929 144.45642,1534.7226 137.93258,1532.8587 117.42909,1502.1034 114.63316,1515.1511 135.13665,1566.4098 C 135.13665,1566.4098 151.91224,1601.8249 161.23201,1560.818 170.55178,1519.811 148.18433,1474.1441 160.30003,1441.5249 172.41573,1408.9057 159.36805,1341.8034 163.09596,1365.1028 166.82387,1388.4022 160.30003,1356.715 160.30003,1356.715 L 232.06225,1359.5109 241.38202,1352.0551 225.53842,1343.6673 197.57911,1348.3272 165.89189,1354.8511 167.75585,1341.8034 237.65412,1305.4563 C 237.65412,1305.4563 246.04191,1293.3406 236.72214,1285.8848 227.40237,1278.4289 204.10295,1255.1295 204.10295,1255.1295 L 203.17097,1264.4493 209.69481,1284.9528 190.12329,1311.0481 169.6198,1333.4156 166.82387,1276.565 187.32736,1255.1295 181.7355,1235.558 160.30003,1220.6464 147.25235,1218.7824 Z"
       id="path4855"
       inkscape:connector-curvature="0" />
    <path
       style="fill:#000000;stroke:none;stroke-width:1px;stroke-linecap:butt;stroke-linejoin:miter;stroke-opacity:1;fill-opacity:1"
       d="M 304.75645,1233.6941 V 1251.4016 L 293.57273,1281.2249 276.79715,1295.2045 249.76982,1277.497 C 249.76982,1277.497 253.49772,1291.4766 256.29365,1298.9324 259.08958,1306.3883 279.59308,1331.5516 279.59308,1331.5516 L 287.98087,1296.1365 302.8925,1285.8848 312.21227,1312.9121 306.62041,1327.8237 286.11692,1339.0075 274.00122,1336.2115 288.91285,1348.3272 312.21227,1339.9394 327.1239,1366.0348 287.04889,1373.4906 271.20528,1370.6947 C 271.20528,1370.6947 270.27331,1393.9941 287.98087,1387.4703 305.68843,1380.9464 327.1239,1377.2185 327.1239,1377.2185 327.1239,1377.2185 332.71576,1394.9261 331.78378,1399.586 330.85181,1404.2458 323.39599,1407.9737 323.39599,1407.9737 L 237.65412,1420.0894 C 237.65412,1420.0894 231.13028,1418.2255 219.01458,1412.6336 206.89888,1407.0418 223.67446,1432.2051 223.67446,1432.2051 L 248.83784,1433.1371 284.25296,1421.0214 292.64075,1419.1575 311.28029,1452.7086 283.32098,1462.0284 H 268.40935 L 269.34133,1473.2121 286.11692,1479.736 317.80413,1470.4162 365.33495,1463.8924 349.49135,1448.0488 338.30762,1456.4365 328.05588,1457.3685 332.71576,1435.0011 317.80413,1431.2732 309.41634,1419.1575 329.91983,1412.6336 C 329.91983,1412.6336 348.55937,1416.3615 352.28728,1416.3615 356.01518,1416.3615 397.95415,1408.9057 397.95415,1408.9057 L 464.12451,1413.5656 486.49195,1421.0214 C 486.49195,1421.0214 505.13149,1428.4772 497.67568,1407.9737 490.21986,1387.4703 458.53265,1393.9941 458.53265,1393.9941 L 346.69542,1402.3819 352.28728,1375.3546 403.54601,1373.4906 C 403.54601,1373.4906 406.34194,1355.783 397.95415,1357.647 389.56635,1359.5109 351.3553,1366.9668 351.3553,1366.9668 L 334.57972,1341.8034 C 334.57972,1341.8034 328.05588,1338.0755 331.78378,1338.0755 335.51169,1338.0755 388.63438,1332.4836 388.63438,1332.4836 L 417.52566,1337.1435 418.45764,1319.4359 448.2809,1286.8167 459.46462,1279.3609 447.34892,1256.0615 441.75706,1239.2859 425.91345,1247.6737 423.11752,1260.7214 370.92682,1262.5853 343.89948,1267.2452 352.28728,1287.7487 V 1307.3202 L 368.13088,1301.7284 364.40298,1273.7691 409.13787,1269.1092 C 409.13787,1269.1092 431.50532,1270.9731 422.18555,1290.5446 412.86578,1310.1162 402.61403,1316.64 402.61403,1316.64 L 359.74309,1325.9598 329.91983,1326.8918 323.39599,1308.2522 310.34832,1278.4289 331.78378,1256.9935 C 331.78378,1256.9935 331.78378,1239.2859 328.05588,1237.422 324.32797,1235.558 310.34832,1228.1022 310.34832,1228.1022 Z"
       id="path4857"
       inkscape:connector-curvature="0" />
    <path
       style="fill:#000000;stroke:none;stroke-width:1px;stroke-linecap:butt;stroke-linejoin:miter;stroke-opacity:1;fill-opacity:1"
       d="M 346.69542,1402.3819 C 366.26693,1421.9534 368.13088,1428.4772 368.13088,1428.4772 L 349.49135,1448.0488 365.33495,1463.8924 401.68205,1462.9604 C 401.68205,1462.9604 396.09019,1444.3208 387.7024,1447.1168 379.31461,1449.9127 367.61064,1448.7211 367.61064,1448.7211 L 389.90159,1434.2938 C 389.90159,1434.2938 392.93585,1423.6739 386.10877,1421.3982 379.2817,1419.1226 372.45463,1407.7441 372.45463,1407.7441 Z"
       id="path4859"
       inkscape:connector-curvature="0"
       sodipodi:nodetypes="ccccccc" />
    <path
       style="fill:#000000;stroke:none;stroke-width:1px;stroke-linecap:butt;stroke-linejoin:miter;stroke-opacity:1;fill-opacity:1"
       d="M 333.7679,1482.0833 C 333.7679,1482.0833 353.49055,1501.806 348.1806,1504.0817 342.87066,1506.3574 234.39609,1516.2187 234.39609,1516.2187 L 221.50052,1507.1159 207.84637,1504.8402 222.25908,1531.3899 C 222.25908,1531.3899 244.25742,1545.0441 253.36018,1537.4585 262.46294,1529.8728 295.08117,1518.4944 295.08117,1518.4944 295.08117,1518.4944 338.31928,1511.6673 342.87066,1513.943 347.42204,1516.2187 345.90491,1611.0391 345.90491,1611.0391 L 351.21486,1639.106 339.83641,1659.5872 348.93917,1677.7927 H 358.80049 V 1630.7618 L 362.59331,1551.1126 364.11044,1511.6673 411.14137,1510.9087 455.13804,1521.5286 465.75793,1517.7358 452.86235,1505.5988 439.20821,1491.1861 402.79717,1500.2888 368.66182,1502.5645 362.59331,1485.8761 343.62922,1474.4977 333.7679,1475.2563 Z"
       id="path4861"
       inkscape:connector-curvature="0" />
    <path
       style="fill:#000000;stroke:none;stroke-width:1px;stroke-linecap:butt;stroke-linejoin:miter;stroke-opacity:1;fill-opacity:1"
       d="M 172.19389,1399.3999 182.81378,1424.4325 188.88229,1439.6038 C 188.88229,1439.6038 204.05356,1440.3623 204.05356,1434.2938 204.05356,1428.2253 197.22649,1407.7441 197.22649,1407.7441 L 175.98671,1394.8485 Z"
       id="path4863"
       inkscape:connector-curvature="0" />
  </g>
</svg>
