<?xml version="1.0" encoding="UTF-8" standalone="no"?>
<!-- Created with Inkscape (http://www.inkscape.org/) -->

<svg
   xmlns:dc="http://purl.org/dc/elements/1.1/"
   xmlns:cc="http://creativecommons.org/ns#"
   xmlns:rdf="http://www.w3.org/1999/02/22-rdf-syntax-ns#"
   xmlns:svg="http://www.w3.org/2000/svg"
   xmlns="http://www.w3.org/2000/svg"
   xmlns:sodipodi="http://sodipodi.sourceforge.net/DTD/sodipodi-0.dtd"
   xmlns:inkscape="http://www.inkscape.org/namespaces/inkscape"
   width="513"
   height="513"
   viewBox="0 0 513 513"
   version="1.1"
   id="svg8"
   inkscape:version="0.92.4 (5da689c313, 2019-01-14)"
   sodipodi:docname="U+4E26.svg">
  <defs
     id="defs2" />
  <sodipodi:namedview
     id="base"
     pagecolor="#ffffff"
     bordercolor="#666666"
     borderopacity="1.0"
     inkscape:pageopacity="0.0"
     inkscape:pageshadow="2"
     inkscape:zoom="1.63"
     inkscape:cx="171.68601"
     inkscape:cy="335.78982"
     inkscape:document-units="px"
     inkscape:current-layer="layer1"
     showgrid="false"
     units="px"
     inkscape:window-width="1920"
     inkscape:window-height="1017"
     inkscape:window-x="-8"
     inkscape:window-y="-8"
     inkscape:window-maximized="1">
    <inkscape:grid
       type="xygrid"
       id="grid3724" />
  </sodipodi:namedview>
  <metadata
     id="metadata5">
    <rdf:RDF>
      <cc:Work
         rdf:about="">
        <dc:format>image/svg+xml</dc:format>
        <dc:type
           rdf:resource="http://purl.org/dc/dcmitype/StillImage" />
        <dc:title></dc:title>
      </cc:Work>
    </rdf:RDF>
  </metadata>
  <g
     inkscape:label="圖層 1"
     inkscape:groupmode="layer"
     id="layer1"
     transform="translate(0,-161.26874)">
    <path
       style="fill:#000000;stroke:none;stroke-width:1px;stroke-linecap:butt;stroke-linejoin:miter;stroke-opacity:1;fill-opacity:1"
       d="M 159.5092,203.1031 C 159.5092,203.1031 173.61963,231.32395 142.33129,254.02334 111.04294,276.72273 180.9816,249.72886 180.9816,249.72886 L 209.20245,241.7534 C 209.20245,241.7534 209.20245,242.3669 202.45399,234.39144 195.70552,226.41598 187.11656,204.94359 187.11656,204.94359 L 161.96319,195.12764 Z"
       id="path4579"
       inkscape:connector-curvature="0" />
    <path
       style="fill:#000000;stroke:none;stroke-width:1px;stroke-linecap:butt;stroke-linejoin:miter;stroke-opacity:1;fill-opacity:1"
       d="M 304.29448,182.2442 C 304.29448,182.2442 312.26994,219.66751 282.82209,233.77794 253.37423,247.88837 341.10429,223.96199 341.10429,223.96199 L 348.46626,212.91905 339.2638,206.17058 C 339.2638,206.17058 320.8589,179.17671 307.97546,178.56322 295.09202,177.94972 306.13497,180.40371 306.13497,180.40371 Z"
       id="path4581"
       inkscape:connector-curvature="0" />
    <path
       style="fill:#000000;stroke:none;stroke-width:1px;stroke-linecap:butt;stroke-linejoin:miter;stroke-opacity:1;fill-opacity:1"
       d="M 111.65644,305.55708 C 111.65644,305.55708 102.45399,342.3669 138.03681,339.91291 173.61963,337.45892 180.9816,320.28101 194.47853,318.44052 207.97546,316.60003 280.9816,298.80862 283.43558,298.80862 285.88957,298.80862 366.25767,306.17058 368.71166,301.8761 371.16564,297.58162 373.00613,295.12764 373.00613,295.12764 373.00613,295.12764 355.21472,269.36076 349.07975,271.20126 342.94479,273.04175 285.27607,285.31168 285.27607,285.31168 L 130.06135,312.91905 Z"
       id="path4583"
       inkscape:connector-curvature="0" />
    <path
       style="fill:#000000;stroke:none;stroke-width:1px;stroke-linecap:butt;stroke-linejoin:miter;stroke-opacity:1;fill-opacity:1"
       d="M 149.07975,369.97426 C 149.07975,369.97426 118.40491,404.94359 131.90184,428.25647 145.39877,451.56935 166.25767,457.09083 166.25767,457.09083 166.25767,457.09083 176.07362,452.18285 173.61963,438.07242 171.16564,423.96199 150.30675,386.53868 150.30675,386.53868 L 153.98773,373.65524 Z"
       id="path4585"
       inkscape:connector-curvature="0" />
    <path
       style="fill:#000000;stroke:none;stroke-width:1px;stroke-linecap:butt;stroke-linejoin:miter;stroke-opacity:1;fill-opacity:1"
       d="M 196.31902,317.82702 C 196.31902,317.82702 214.11043,341.7534 214.11043,363.83929 214.11043,385.92518 206.13497,479.79021 206.13497,479.79021 L 215.95092,484.08469 C 215.95092,484.08469 131.90184,491.44665 128.83436,491.44665 125.76687,491.44665 47.852761,509.85156 47.852761,509.85156 H 31.90184 C 31.90184,509.85156 26.993865,544.82089 41.104294,540.52641 55.214724,536.23193 88.343558,517.82702 88.343558,517.82702 L 157.05521,503.1031 C 157.05521,503.1031 215.33742,490.83316 219.0184,492.06015 222.69939,493.28714 273.00613,498.19512 273.00613,498.19512 L 325.76687,507.39757 397.54601,528.25647 C 397.54601,528.25647 415.95092,525.18899 411.65644,515.98653 407.36196,506.78408 393.86503,492.06015 384.66258,493.28714 375.46012,494.51414 333.74233,479.17672 333.74233,479.17672 L 270.55215,478.56322 265.03067,471.81475 266.25767,425.80248 C 266.25767,425.80248 348.46626,397.58162 360.7362,369.97426 373.00613,342.3669 313.49693,342.3669 313.49693,342.3669 L 309.81595,349.11537 C 309.81595,349.11537 329.44785,361.9988 322.08589,369.97426 314.72393,377.94972 290.79755,403.1031 290.79755,403.1031 L 269.93865,414.14604 C 269.93865,414.14604 267.48466,357.70432 273.00613,358.93132 278.52761,360.15831 292.63804,336.84543 292.63804,336.84543 L 265.64417,312.30555 247.23926,299.42211 C 247.23926,299.42211 229.44785,298.19512 233.12883,300.03561 236.80982,301.8761 254.60123,319.66751 254.60123,319.66751 254.60123,319.66751 268.71166,331.32395 263.19018,349.11537 257.66871,366.90678 260.1227,376.10923 260.1227,376.10923 L 255.21472,417.82702 230.67485,425.80248 C 230.67485,425.80248 221.47239,428.25647 226.99387,429.48346 232.51534,430.71046 257.66871,432.55095 257.66871,432.55095 L 245.39877,480.40371 217.79141,479.79021 222.08589,435.00494 C 222.08589,435.00494 222.08589,403.71659 226.38037,395.12764 230.67485,386.53868 228.83436,363.2258 228.83436,363.2258 228.83436,363.2258 238.65031,342.3669 230.67485,339.29941 222.69939,336.23193 208.58896,325.18899 208.58896,325.18899 Z"
       id="path4587"
       inkscape:connector-curvature="0" />
  </g>
</svg>
