<?xml version="1.0" encoding="UTF-8" standalone="no"?>
<!-- Created with Inkscape (http://www.inkscape.org/) -->

<svg
   xmlns:dc="http://purl.org/dc/elements/1.1/"
   xmlns:cc="http://creativecommons.org/ns#"
   xmlns:rdf="http://www.w3.org/1999/02/22-rdf-syntax-ns#"
   xmlns:svg="http://www.w3.org/2000/svg"
   xmlns="http://www.w3.org/2000/svg"
   xmlns:sodipodi="http://sodipodi.sourceforge.net/DTD/sodipodi-0.dtd"
   xmlns:inkscape="http://www.inkscape.org/namespaces/inkscape"
   width="513"
   height="513"
   viewBox="0 0 513 513.00002"
   version="1.1"
   id="svg8"
   inkscape:version="0.92.4 (5da689c313, 2019-01-14)"
   sodipodi:docname="U+4EFB.svg">
  <defs
     id="defs2" />
  <sodipodi:namedview
     id="base"
     pagecolor="#ffffff"
     bordercolor="#666666"
     borderopacity="1.0"
     inkscape:pageopacity="0.0"
     inkscape:pageshadow="2"
     inkscape:zoom="1.1140517"
     inkscape:cx="233.49885"
     inkscape:cy="323.61387"
     inkscape:document-units="px"
     inkscape:current-layer="layer1"
     showgrid="false"
     units="px"
     inkscape:window-width="1440"
     inkscape:window-height="838"
     inkscape:window-x="-8"
     inkscape:window-y="-8"
     inkscape:window-maximized="1">
    <inkscape:grid
       type="xygrid"
       id="grid3724" />
  </sodipodi:namedview>
  <metadata
     id="metadata5">
    <rdf:RDF>
      <cc:Work
         rdf:about="">
        <dc:format>image/svg+xml</dc:format>
        <dc:type
           rdf:resource="http://purl.org/dc/dcmitype/StillImage" />
        <dc:title></dc:title>
      </cc:Work>
    </rdf:RDF>
  </metadata>
  <g
     inkscape:label="圖層 1"
     inkscape:groupmode="layer"
     id="layer1"
     transform="translate(0,-609.51965)">
    <path
       style="fill:#000000;stroke:none;stroke-width:1px;stroke-linecap:butt;stroke-linejoin:miter;stroke-opacity:1;fill-opacity:1"
       d="M 150.8009,649.47158 161.5724,679.99081 149.00566,706.02191 27.826357,859.51569 17.054864,869.38956 32.314479,866.69669 80.786199,829.89409 111.30543,794.88673 127.46267,807.45348 C 127.46267,807.45348 135.54129,826.30359 131.95079,827.20121 128.36029,828.09884 133.74604,854.12995 133.74604,854.12995 L 131.05317,946.58526 127.46267,968.12825 C 127.46267,968.12825 128.36029,979.79737 131.95079,981.59261 135.54129,983.38786 146.31278,965.43537 146.31278,961.84488 146.31278,958.25438 154.3914,862.20857 154.3914,862.20857 L 157.08428,836.17746 C 157.08428,836.17746 154.3914,809.24872 145.41516,810.14635 136.43891,811.04397 115.79355,789.50099 115.79355,789.50099 L 163.36765,736.54115 C 163.36765,736.54115 194.7845,718.58866 195.68213,711.40766 196.57975,704.22667 169.65102,652.16445 169.65102,652.16445 L 157.08428,644.98345 Z"
       id="path4656"
       inkscape:connector-curvature="0" />
    <path
       style="fill:#000000;stroke:none;stroke-width:1px;stroke-linecap:butt;stroke-linejoin:miter;stroke-opacity:1;fill-opacity:1"
       d="M 230.68948,703.32904 262.10633,740.13164 C 262.10633,740.13164 280.95645,739.23402 280.95645,733.84827 280.95645,728.46253 293.52319,727.5649 293.52319,727.5649 293.52319,727.5649 321.34955,747.31264 322.24717,752.69839 323.14479,758.08413 322.24717,804.7606 322.24717,804.7606 L 280.05882,815.5321 272.87783,808.3511 C 272.87783,808.3511 254.92534,807.45348 251.33484,818.22497 247.74434,828.99646 278.26357,847.84657 278.26357,847.84657 278.26357,847.84657 287.23982,849.64182 300.70418,840.66558 314.16855,831.68933 322.24717,828.99646 322.24717,828.99646 322.24717,828.99646 329.42817,847.84657 324.94004,855.02757 320.45192,862.20857 334.81391,882.85393 329.42817,882.85393 324.04242,882.85393 289.03507,893.62542 289.03507,893.62542 L 201.06787,916.96366 C 201.06787,916.96366 221.71323,934.01852 228.89423,934.01852 236.07522,934.01852 263.00396,918.7589 263.00396,918.7589 L 325.83767,899.01117 357.25452,896.31829 422.78111,906.19216 450.60746,908.88504 C 450.60746,908.88504 466.7647,894.52305 454.19796,882.85393 441.63122,871.18481 413.80486,866.69669 413.80486,866.69669 L 354.56165,881.9563 355.45927,820.02022 395.85237,811.04397 C 395.85237,811.04397 411.11199,801.1701 408.41912,797.57961 405.72624,793.98911 389.569,790.39861 389.569,790.39861 L 377.89988,789.50099 353.66403,797.57961 352.7664,739.23402 318.65667,721.28153 319.5543,715.89578 419.19061,694.3528 412.00961,686.27418 384.18326,678.19556 375.20701,688.96705 342.89253,692.55755 295.31844,706.91954 252.23246,705.12429 Z"
       id="path4658"
       inkscape:connector-curvature="0" />
  </g>
</svg>
