<?xml version="1.0" encoding="UTF-8" standalone="no"?>
<!-- Created with Inkscape (http://www.inkscape.org/) -->

<svg
   xmlns:dc="http://purl.org/dc/elements/1.1/"
   xmlns:cc="http://creativecommons.org/ns#"
   xmlns:rdf="http://www.w3.org/1999/02/22-rdf-syntax-ns#"
   xmlns:svg="http://www.w3.org/2000/svg"
   xmlns="http://www.w3.org/2000/svg"
   xmlns:sodipodi="http://sodipodi.sourceforge.net/DTD/sodipodi-0.dtd"
   xmlns:inkscape="http://www.inkscape.org/namespaces/inkscape"
   width="513"
   height="513"
   viewBox="0 0 513 513"
   version="1.1"
   id="svg8"
   inkscape:version="0.92.4 (5da689c313, 2019-01-14)"
   sodipodi:docname="U+4FD7.svg">
  <defs
     id="defs2" />
  <sodipodi:namedview
     id="base"
     pagecolor="#ffffff"
     bordercolor="#666666"
     borderopacity="1.0"
     inkscape:pageopacity="0.0"
     inkscape:pageshadow="2"
     inkscape:zoom="1.63"
     inkscape:cx="203.80812"
     inkscape:cy="230.48818"
     inkscape:document-units="px"
     inkscape:current-layer="layer1"
     showgrid="false"
     units="px"
     inkscape:window-width="1920"
     inkscape:window-height="1017"
     inkscape:window-x="-8"
     inkscape:window-y="-8"
     inkscape:window-maximized="1">
    <inkscape:grid
       type="xygrid"
       id="grid3724" />
  </sodipodi:namedview>
  <metadata
     id="metadata5">
    <rdf:RDF>
      <cc:Work
         rdf:about="">
        <dc:format>image/svg+xml</dc:format>
        <dc:type
           rdf:resource="http://purl.org/dc/dcmitype/StillImage" />
        <dc:title></dc:title>
      </cc:Work>
    </rdf:RDF>
  </metadata>
  <g
     inkscape:label="圖層 1"
     inkscape:groupmode="layer"
     id="layer1"
     transform="translate(0,-161.26874)">
    <path
       style="fill:#000000;stroke:none;stroke-width:1px;stroke-linecap:butt;stroke-linejoin:miter;stroke-opacity:1;fill-opacity:1"
       d="M 141.10429,205.55708 130.67485,258.93132 C 130.67485,258.93132 26.993865,385.92518 24.539877,388.37917 22.08589,390.83316 0.61349693,415.37303 0.61349693,415.37303 L 2.4539877,423.34849 47.852761,392.67365 C 47.852761,392.67365 114.72393,335.61843 114.11043,331.93745 113.49693,328.25647 162.57669,276.72273 162.57669,276.72273 L 158.89571,255.86383 145.39877,232.55095 142.94479,206.17058 Z"
       id="path4550"
       inkscape:connector-curvature="0" />
    <path
       style="fill:#000000;stroke:none;stroke-width:1px;stroke-linecap:butt;stroke-linejoin:miter;stroke-opacity:1;fill-opacity:1"
       d="M 96.319018,351.56935 110.42945,376.10923 103.06748,441.7534 104.90798,474.88224 95.092025,515.98653 76.687117,561.3853 82.822086,570.58776 C 82.822086,570.58776 88.957055,573.65524 88.957055,568.74727 88.957055,563.83929 88.957055,555.86383 88.957055,555.86383 L 99.386503,559.54481 C 99.386503,559.54481 111.04294,526.41598 112.26994,519.66751 113.49693,512.91905 123.31288,451.56935 123.31288,451.56935 L 135.58282,385.92518 C 135.58282,385.92518 132.51534,368.13377 126.99387,367.52027 121.47239,366.90678 101.84049,347.88837 101.84049,347.88837 Z"
       id="path4552"
       inkscape:connector-curvature="0" />
    <path
       style="fill:#000000;stroke:none;stroke-width:1px;stroke-linecap:butt;stroke-linejoin:miter;stroke-opacity:1;fill-opacity:1"
       d="M 224.53988,282.2442 C 224.53988,282.2442 243.55828,286.53868 229.44785,300.64911 215.33742,314.75954 202.45399,323.34849 202.45399,323.34849 202.45399,323.34849 196.93252,328.86997 200,329.48346 203.06748,330.09696 235.58282,314.75954 235.58282,314.75954 L 263.19018,305.55708 C 263.19018,305.55708 275.46012,297.58162 258.89571,284.69819 242.33129,271.81475 230.06135,268.13377 230.06135,268.13377 L 220.8589,275.49573 Z"
       id="path4554"
       inkscape:connector-curvature="0" />
    <path
       style="fill:#000000;stroke:none;stroke-width:1px;stroke-linecap:butt;stroke-linejoin:miter;stroke-opacity:1;fill-opacity:1"
       d="M 354.60123,256.47733 C 357.66871,258.31782 364.41718,275.49573 368.09816,275.49573 371.77914,275.49573 359.5092,288.99267 359.5092,288.99267 L 330.67485,301.26261 C 330.67485,301.26261 333.74233,304.94359 340.4908,304.94359 347.23926,304.94359 383.43558,300.03561 395.70552,298.19512 407.97546,296.35463 406.13497,265.67978 399.3865,265.06629 392.63804,264.45279 371.16564,261.9988 369.32515,258.93132 367.48466,255.86383 358.28221,252.18285 358.28221,252.18285 Z"
       id="path4556"
       inkscape:connector-curvature="0" />
    <path
       style="fill:#000000;stroke:none;stroke-width:1px;stroke-linecap:butt;stroke-linejoin:miter;stroke-opacity:1;fill-opacity:1"
       d="M 265.03067,333.77794 C 265.03067,333.77794 251.31149,388.89575 230.67485,407.39757 212.88344,423.34849 176.07362,472.42825 129.44785,457.70432 82.822086,442.9804 130.06135,471.81475 130.06135,471.81475 130.06135,471.81475 167.48466,493.90064 205.52147,460.15831 243.55828,426.41598 261.34969,382.2442 261.34969,382.2442 L 268.71165,366.90677 C 268.71165,366.90677 288.34356,351.56935 276.07362,337.45892 263.80368,323.34849 265.03067,333.77794 265.03067,333.77794 Z"
       id="path4558"
       inkscape:connector-curvature="0"
       sodipodi:nodetypes="csscsccsc" />
    <path
       style="fill:#000000;stroke:none;stroke-width:1px;stroke-linecap:butt;stroke-linejoin:miter;stroke-opacity:1;fill-opacity:1"
       d="M 288.95706,341.7534 C 292.63804,342.3669 363.80368,409.23807 363.80368,409.23807 363.80368,409.23807 442.33129,469.36076 445.39877,470.58776 448.46626,471.81475 460.7362,474.88224 477.91411,459.54481 495.09202,444.20739 514.11043,450.95586 514.11043,450.95586 514.11043,450.95586 502.45399,444.20739 496.93252,442.9804 491.41104,441.7534 423.31288,420.89451 416.56442,416.60003 409.81595,412.30555 393.25153,414.75954 353.37423,380.40371 313.49693,346.04788 342.94478,371.20126 314.11043,344.82088 307.38143,338.66456 296.93252,338.07242 296.93252,338.07242 Z"
       id="path4560"
       inkscape:connector-curvature="0"
       sodipodi:nodetypes="cccsccssscc" />
    <path
       style="fill:#000000;stroke:none;stroke-width:1px;stroke-linecap:butt;stroke-linejoin:miter;stroke-opacity:1;fill-opacity:1"
       d="M 212.88344,458.93132 228.83436,472.42825 246.01227,523.34849 249.69325,547.27487 261.96319,565.67978 268.71166,562.6123 273.00613,543.59389 297.54601,535.61843 326.99387,536.23193 C 326.99387,536.23193 339.2638,537.45892 341.10429,535.00494 342.94479,532.55095 345.39877,526.41598 345.39877,526.41598 L 331.90184,517.82702 307.36196,515.37303 259.5092,519.66751 C 259.5092,519.66751 246.62577,472.42825 249.07975,472.42825 251.53374,472.42825 330.67485,458.93132 330.67485,458.93132 330.67485,458.93132 358.28221,457.70432 361.34969,458.93132 364.41718,460.15831 375.46012,451.56935 368.09816,448.50187 360.7362,445.43438 341.10429,430.09696 341.10429,430.09696 341.10429,430.09696 329.44785,435.00494 330.67485,439.91291 331.90184,444.82089 242.94479,462.6123 242.94479,462.6123 L 219.6319,448.50187 205.52147,443.59389 Z"
       id="path4562"
       inkscape:connector-curvature="0" />
    <path
       style="fill:none;stroke:#000000;stroke-width:1px;stroke-linecap:butt;stroke-linejoin:miter;stroke-opacity:1"
       d="M 330.67485,458.93132 Z"
       id="path4564"
       inkscape:connector-curvature="0" />
    <path
       style="fill:#000000;stroke:none;stroke-width:1px;stroke-linecap:butt;stroke-linejoin:miter;stroke-opacity:1;fill-opacity:1"
       d="M 330.67485,458.93132 V 458.93132 458.93132 458.93132 C 330.67485,458.93132 319.6319,512.30555 315.95092,525.80248 312.26994,539.29941 326.99387,536.23193 326.99387,536.23193 L 361.34969,455.25034 332.51534,446.04788 Z"
       id="path4566"
       inkscape:connector-curvature="0" />
  </g>
</svg>
