<?xml version="1.0" encoding="UTF-8" standalone="no"?>
<!-- Created with Inkscape (http://www.inkscape.org/) -->

<svg
   xmlns:dc="http://purl.org/dc/elements/1.1/"
   xmlns:cc="http://creativecommons.org/ns#"
   xmlns:rdf="http://www.w3.org/1999/02/22-rdf-syntax-ns#"
   xmlns:svg="http://www.w3.org/2000/svg"
   xmlns="http://www.w3.org/2000/svg"
   xmlns:sodipodi="http://sodipodi.sourceforge.net/DTD/sodipodi-0.dtd"
   xmlns:inkscape="http://www.inkscape.org/namespaces/inkscape"
   width="511"
   height="513"
   viewBox="0 0 511 513.00002"
   version="1.1"
   id="svg8"
   inkscape:version="0.92.4 (5da689c313, 2019-01-14)"
   sodipodi:docname="U+5DE7.svg">
  <defs
     id="defs2" />
  <sodipodi:namedview
     id="base"
     pagecolor="#ffffff"
     bordercolor="#666666"
     borderopacity="1.0"
     inkscape:pageopacity="0.0"
     inkscape:pageshadow="2"
     inkscape:zoom="1.28"
     inkscape:cx="233.49885"
     inkscape:cy="281.04793"
     inkscape:document-units="px"
     inkscape:current-layer="layer1"
     showgrid="false"
     units="px"
     inkscape:window-width="1440"
     inkscape:window-height="838"
     inkscape:window-x="-8"
     inkscape:window-y="-8"
     inkscape:window-maximized="1">
    <inkscape:grid
       type="xygrid"
       id="grid3724" />
  </sodipodi:namedview>
  <metadata
     id="metadata5">
    <rdf:RDF>
      <cc:Work
         rdf:about="">
        <dc:format>image/svg+xml</dc:format>
        <dc:type
           rdf:resource="http://purl.org/dc/dcmitype/StillImage" />
        <dc:title></dc:title>
      </cc:Work>
    </rdf:RDF>
  </metadata>
  <g
     inkscape:label="圖層 1"
     inkscape:groupmode="layer"
     id="layer1"
     transform="translate(0,-609.51965)">
    <path
       style="fill:#000000;stroke:none;stroke-width:1px;stroke-linecap:butt;stroke-linejoin:miter;stroke-opacity:1;fill-opacity:1"
       d="M 56.25,715.4884 100.78125,699.8634 140.625,685.8009 150.78125,691.26965 145.3125,696.7384 C 145.3125,696.7384 133.59375,709.2384 132.8125,713.9259 132.03125,718.6134 64.84375,748.3009 64.84375,748.3009 64.84375,748.3009 30.46875,735.01965 33.59375,714.70715 36.71875,694.39465 62.5,720.1759 47.65625,713.9259 32.8125,707.6759 56.25,715.4884 56.25,715.4884 Z"
       id="path4671"
       inkscape:connector-curvature="0" />
    <path
       style="fill:#000000;stroke:none;stroke-width:1px;stroke-linecap:butt;stroke-linejoin:miter;stroke-opacity:1;fill-opacity:1"
       d="M 53.90625,767.0509 79.6875,771.7384 103.125,784.2384 C 103.125,784.2384 102.34375,795.1759 100,799.8634 97.65625,804.5509 100,867.0509 100,867.0509 L 169.53125,817.83215 174.21875,822.51965 167.96875,831.1134 115.625,877.9884 39.0625,944.39465 C 39.0625,944.39465 12.5,931.89465 14.84375,918.6134 17.1875,905.33215 25.78125,901.4259 32.03125,900.64465 38.28125,899.8634 55.46875,898.3009 55.46875,893.6134 55.46875,888.9259 84.375,874.8634 84.375,874.8634 L 68.75,793.6134 C 68.75,793.6134 64.84375,775.64465 57.8125,774.08215 50.78125,772.51965 53.90625,767.0509 53.90625,767.0509 Z"
       id="path4673"
       inkscape:connector-curvature="0" />
    <path
       style="fill:#000000;stroke:none;stroke-width:1px;stroke-linecap:butt;stroke-linejoin:miter;stroke-opacity:1;fill-opacity:1"
       d="M 190.625,685.8009 C 190.625,685.8009 211.71875,712.3634 215.625,712.3634 219.53125,712.3634 230.46875,716.26965 243.75,705.33215 L 257.03125,694.39465 C 257.03125,694.39465 278.90625,710.01965 274.21875,721.7384 269.53125,733.45715 210.9375,800.64465 210.9375,800.64465 L 220.3125,808.45715 258.59375,785.01965 C 258.59375,785.01965 264.11173,803.17714 280.46875,806.89465 297.65625,810.8009 353.125,791.26965 353.125,791.26965 L 378.125,786.58215 C 378.125,786.58215 404.6875,781.1134 393.75,811.58215 382.8125,842.0509 349.21875,964.70715 345.3125,964.70715 341.40625,964.70715 334.375,973.3009 334.375,973.3009 L 279.6875,958.45715 275.78125,962.3634 C 275.78125,962.3634 314.84375,1010.0196 317.96875,1010.0196 H 336.71875 L 359.375,976.4259 419.53125,805.33215 423.4375,791.26965 C 423.4375,791.26965 407.03125,767.0509 395.3125,770.95715 383.59375,774.8634 290.625,784.2384 290.625,784.2384 L 267.1875,776.4259 268.75,771.7384 304.6875,729.5509 C 304.6875,729.5509 311.71875,706.1134 302.34375,706.89465 292.96875,707.6759 278.90625,685.01965 278.90625,685.01965 L 357.8125,662.3634 389.0625,657.6759 396.09375,646.7384 C 396.09375,646.7384 392.96875,640.4884 381.25,641.26965 369.53125,642.0509 327.34375,654.5509 327.34375,654.5509 L 251.5625,677.20715 213.28125,688.9259 200,681.89465 Z"
       id="path4675"
       inkscape:connector-curvature="0"
       sodipodi:nodetypes="csscscccsccsscccsccccsccccsccccsccccc" />
  </g>
</svg>
