<?xml version="1.0" encoding="UTF-8" standalone="no"?>
<!-- Created with Inkscape (http://www.inkscape.org/) -->

<svg
   xmlns:dc="http://purl.org/dc/elements/1.1/"
   xmlns:cc="http://creativecommons.org/ns#"
   xmlns:rdf="http://www.w3.org/1999/02/22-rdf-syntax-ns#"
   xmlns:svg="http://www.w3.org/2000/svg"
   xmlns="http://www.w3.org/2000/svg"
   xmlns:sodipodi="http://sodipodi.sourceforge.net/DTD/sodipodi-0.dtd"
   xmlns:inkscape="http://www.inkscape.org/namespaces/inkscape"
   width="513"
   height="513"
   viewBox="0 0 513 513.00002"
   version="1.1"
   id="svg8"
   inkscape:version="0.92.4 (5da689c313, 2019-01-14)"
   sodipodi:docname="U+6D3B.svg">
  <defs
     id="defs2" />
  <sodipodi:namedview
     id="base"
     pagecolor="#ffffff"
     bordercolor="#666666"
     borderopacity="1.0"
     inkscape:pageopacity="0.0"
     inkscape:pageshadow="2"
     inkscape:zoom="1.76"
     inkscape:cx="179.96438"
     inkscape:cy="271.8654"
     inkscape:document-units="px"
     inkscape:current-layer="layer1"
     showgrid="false"
     units="px"
     inkscape:window-width="1920"
     inkscape:window-height="1017"
     inkscape:window-x="-8"
     inkscape:window-y="-8"
     inkscape:window-maximized="1">
    <inkscape:grid
       type="xygrid"
       id="grid826" />
  </sodipodi:namedview>
  <metadata
     id="metadata5">
    <rdf:RDF>
      <cc:Work
         rdf:about="">
        <dc:format>image/svg+xml</dc:format>
        <dc:type
           rdf:resource="http://purl.org/dc/dcmitype/StillImage" />
        <dc:title></dc:title>
      </cc:Work>
    </rdf:RDF>
  </metadata>
  <g
     inkscape:label="圖層 1"
     inkscape:groupmode="layer"
     id="layer1"
     transform="translate(0,-609.51965)">
    <path
       style="fill:#000000;stroke:#000000;stroke-width:1px;stroke-linecap:butt;stroke-linejoin:miter;stroke-opacity:0.7245509;fill-opacity:1"
       d="M 46.590909,646.38329 C 46.590909,646.38329 57.386364,675.36056 54.545455,676.49692 51.704545,677.63329 69.318182,673.65601 75.568182,702.63329 81.818182,731.61056 70.454545,756.61056 70.454545,756.61056 70.454545,756.61056 80.113636,776.49692 77.272727,779.90601 74.431818,783.3151 94.318182,711.7242 94.318182,711.7242 94.318182,711.7242 80.113636,652.63329 63.068182,654.90601 46.022727,657.17874 62.5,656.04238 62.5,656.04238 62.5,656.04238 56.818182,643.54238 53.409091,645.8151 50,648.08783 46.590909,646.38329 46.590909,646.38329 Z"
       id="path851"
       inkscape:connector-curvature="0" />
    <path
       style="fill:#000000;stroke:#000000;stroke-width:1px;stroke-linecap:butt;stroke-linejoin:miter;stroke-opacity:0.7245509;fill-opacity:1"
       d="M 114.20455,750.92874 118.75,765.70147 96.590909,800.36056 92.613636,803.76965 113.06818,804.33783 140.34091,786.7242 V 771.95147 L 127.84091,758.88329 Z"
       id="path853"
       inkscape:connector-curvature="0" />
    <path
       style="fill:#000000;stroke:#000000;stroke-width:1px;stroke-linecap:butt;stroke-linejoin:miter;stroke-opacity:0.7245509;fill-opacity:1"
       d="M 26.136364,816.26965 C 28.977273,817.9742 46.022727,839.5651 46.022727,839.5651 L 61.931818,824.79238 63.068182,839.5651 52.272727,865.70147 C 52.272727,865.70147 50,871.95147 47.727273,870.8151 45.454545,869.67874 32.954545,856.61056 32.954545,856.61056 L 23.295455,852.63329 Z"
       id="path855"
       inkscape:connector-curvature="0" />
    <path
       style="fill:#000000;stroke:#000000;stroke-width:1px;stroke-linecap:butt;stroke-linejoin:miter;stroke-opacity:0.7245509;fill-opacity:1"
       d="M 72.159091,913.42874 65.340909,985.01965 63.068182,988.99692 83.522727,1012.8606 95.454545,1015.7015 V 1007.1787 L 87.5,990.70147 C 87.5,990.70147 84.090909,958.88329 84.090909,956.04238 84.090909,953.20147 79.545455,932.74692 79.545455,932.74692 L 73.295455,915.13329 Z"
       id="path857"
       inkscape:connector-curvature="0" />
    <path
       style="fill:#000000;stroke:#000000;stroke-width:1px;stroke-linecap:butt;stroke-linejoin:miter;stroke-opacity:1;fill-opacity:1"
       d="M 261.36364,694.11056 264.20455,704.33783 256.81818,719.67874 234.09091,746.38329 209.65909,760.01965 C 209.65909,760.01965 210.79545,769.67874 213.63636,769.67874 216.47727,769.67874 221.02273,759.45147 225,761.15601 228.97727,762.86056 258.84651,781.64961 243.75,785.58783 230.68182,788.99692 230.68182,788.99692 230.68182,788.99692 L 131.81818,819.67874 133.52273,827.63329 161.93182,844.11056 172.72727,831.61056 226.70455,807.17874 240.34091,806.61056 243.75,812.29238 227.27273,863.42874 238.63636,865.13329 243.75,853.20147 C 243.75,853.20147 280.68182,814.5651 278.40909,802.0651 276.13636,789.5651 363.06818,787.86056 363.06818,787.86056 L 440.34091,798.08783 C 440.34091,798.08783 450,795.8151 450,790.70147 450,785.58783 427.84091,756.04238 418.75,761.15601 409.65909,766.26965 394.31818,769.67874 394.31818,769.67874 L 278.40909,784.45147 241.47727,756.61056 297.72727,732.17874 C 297.72727,732.17874 309.65909,723.65601 303.97727,717.9742 298.29545,712.29238 282.95455,686.15601 277.27273,690.70147 271.59091,695.24692 261.36364,694.11056 261.36364,694.11056 Z"
       id="path867"
       inkscape:connector-curvature="0"
       sodipodi:nodetypes="cccccscscccccccccccsccssccccscc" />
    <path
       style="fill:#000000;stroke:#000000;stroke-width:1px;stroke-linecap:butt;stroke-linejoin:miter;stroke-opacity:1;fill-opacity:1"
       d="M 177.84091,854.90601 C 180.11364,859.45147 198.29545,874.79238 198.29545,874.79238 L 211.36364,924.79238 222.15909,964.5651 C 222.15909,964.5651 238.63636,976.49692 237.5,971.95147 236.36364,967.40601 239.20455,954.33783 239.20455,954.33783 239.20455,954.33783 272.72727,946.95147 276.13636,948.08783 279.54545,949.2242 318.75,948.08783 318.75,948.08783 L 341.47727,949.79238 348.29545,945.24692 346.02273,940.13329 333.52273,932.17874 310.79545,921.95147 H 290.90909 L 246.02273,927.0651 237.5,931.61056 235.79545,903.20147 230.68182,883.88329 C 230.68182,883.88329 246.02273,876.49692 250.56818,877.0651 255.11364,877.63329 297.72727,867.9742 300,867.9742 302.27273,867.9742 317.61364,861.15601 317.61364,861.15601 L 323.29545,834.45147 282.38636,848.65601 243.75,853.20147 227.27273,863.42874 190.90909,854.33783 177.84091,852.63329 Z"
       id="path879"
       inkscape:connector-curvature="0" />
    <path
       style="fill:#000000;stroke:#000000;stroke-width:1px;stroke-linecap:butt;stroke-linejoin:miter;stroke-opacity:1;fill-opacity:1"
       d="M 332.95455,827.0651 C 338.06818,829.33783 351.70455,838.42874 351.70455,838.42874 L 363.06818,856.61056 354.54545,868.54238 350,867.40601 C 350,867.40601 343.18182,892.40601 342.61364,896.38329 342.04545,900.36056 333.52273,932.17874 333.52273,932.17874 V 932.17874 L 318.75,948.08783 310.79545,921.95147 316.47727,882.17874 317.61364,861.15601 323.29545,834.45147 Z"
       id="path881"
       inkscape:connector-curvature="0" />
  </g>
</svg>
