<?xml version="1.0" encoding="UTF-8" standalone="no"?>
<!-- Created with Inkscape (http://www.inkscape.org/) -->

<svg
   xmlns:dc="http://purl.org/dc/elements/1.1/"
   xmlns:cc="http://creativecommons.org/ns#"
   xmlns:rdf="http://www.w3.org/1999/02/22-rdf-syntax-ns#"
   xmlns:svg="http://www.w3.org/2000/svg"
   xmlns="http://www.w3.org/2000/svg"
   xmlns:sodipodi="http://sodipodi.sourceforge.net/DTD/sodipodi-0.dtd"
   xmlns:inkscape="http://www.inkscape.org/namespaces/inkscape"
   width="625"
   height="625"
   viewBox="0 0 625 625.00002"
   version="1.1"
   id="svg8"
   inkscape:version="0.92.4 (5da689c313, 2019-01-14)"
   sodipodi:docname="U+7B46.svg">
  <defs
     id="defs2" />
  <sodipodi:namedview
     id="base"
     pagecolor="#ffffff"
     bordercolor="#666666"
     borderopacity="1.0"
     inkscape:pageopacity="0.0"
     inkscape:pageshadow="2"
     inkscape:zoom="1.15"
     inkscape:cx="232.48554"
     inkscape:cy="348.93478"
     inkscape:document-units="px"
     inkscape:current-layer="layer1"
     showgrid="false"
     units="px"
     inkscape:window-width="1440"
     inkscape:window-height="838"
     inkscape:window-x="-8"
     inkscape:window-y="-8"
     inkscape:window-maximized="1">
    <inkscape:grid
       type="xygrid"
       id="grid3724" />
  </sodipodi:namedview>
  <metadata
     id="metadata5">
    <rdf:RDF>
      <cc:Work
         rdf:about="">
        <dc:format>image/svg+xml</dc:format>
        <dc:type
           rdf:resource="http://purl.org/dc/dcmitype/StillImage" />
        <dc:title></dc:title>
      </cc:Work>
    </rdf:RDF>
  </metadata>
  <g
     inkscape:label="圖層 1"
     inkscape:groupmode="layer"
     id="layer1"
     transform="translate(0,-497.51965)">
    <path
       style="fill:none;stroke:#000000;stroke-width:1px;stroke-linecap:butt;stroke-linejoin:miter;stroke-opacity:1"
       d="M 217.88618,754.22697 V 754.22697"
       id="path3732"
       inkscape:connector-curvature="0" />
    <path
       style="fill:#000000;stroke:#000000;stroke-width:1px;stroke-linecap:butt;stroke-linejoin:miter;stroke-opacity:1;fill-opacity:1"
       d="M 163,570.51965 C 163,570.51965 179,596.51965 171,621.51965 163,646.51965 87,684.51965 87,684.51965 V 692.51965 C 87,692.51965 159,676.51965 179,648.51965 199,620.51965 211,606.51965 211,606.51965 211,606.51965 195,592.51965 190,592.51965 185,592.51965 185,574.51965 179,575.51965 173,576.51965 163,570.51965 163,570.51965 Z"
       id="path4560"
       inkscape:connector-curvature="0" />
    <path
       style="fill:#000000;stroke:#000000;stroke-width:1px;stroke-linecap:butt;stroke-linejoin:miter;stroke-opacity:1;fill-opacity:1"
       d="M 245,617.51965 252,631.51965 203,636.51965 C 203,636.51965 227,683.51965 211,682.51965 195,681.51965 196,642.51965 196,642.51965 L 192,629.51965 196,625.51965 C 196,625.51965 222,614.51965 228,617.51965 234,620.51965 245,617.51965 245,617.51965 Z"
       id="path4564"
       inkscape:connector-curvature="0" />
    <path
       style="fill:#000000;stroke:#000000;stroke-width:1px;stroke-linecap:butt;stroke-linejoin:miter;stroke-opacity:1;fill-opacity:1"
       d="M 275.46012,539.69756 C 275.46012,539.69756 293.25153,554.42149 289.57055,558.71597 285.88957,563.01045 268.09816,626.20063 268.09816,626.20063 L 271.16564,630.49511 309.20245,583.25585 330.67485,568.53192 C 330.67485,568.53192 333.12883,558.71597 325.15337,555.64848 317.17791,552.581 301.84049,524.36014 301.84049,524.36014 301.84049,524.36014 284.04908,526.81413 283.43558,529.88161 282.82209,532.9491 275.46012,539.69756 275.46012,539.69756 Z"
       id="path4566"
       inkscape:connector-curvature="0" />
    <path
       style="fill:#000000;stroke:#000000;stroke-width:1px;stroke-linecap:butt;stroke-linejoin:miter;stroke-opacity:1;fill-opacity:1"
       d="M 314.72393,596.75278 329.44785,610.24971 331.28834,616.99818 322.08589,627.42763 307.36196,660.55646 313.49693,666.07793 326.38037,660.55646 343.55828,651.35401 334.96933,621.29266 336.19632,615.15769 392.02454,609.02272 424.53988,600.43376 C 424.53988,600.43376 434.35583,578.96137 417.79141,580.80186 401.22699,582.64235 365.03067,591.23131 365.03067,591.23131 L 331.90184,599.20677 Z"
       id="path4568"
       inkscape:connector-curvature="0" />
    <path
       style="fill:#000000;stroke:#000000;stroke-width:1px;stroke-linecap:butt;stroke-linejoin:miter;stroke-opacity:1;fill-opacity:1"
       d="M 248.46626,707.79572 201.84049,718.22517 170.73171,703.00745 V 703.00745 L 160.1227,712.0902 177.30061,732.3356 201.84049,742.76505 247.85276,723.74664 250.30675,761.16996 70.552147,796.13928 56.441718,788.16382 52.760736,793.68529 74.233129,818.22517 84.04908,819.45217 C 84.04908,819.45217 92.02454,831.7221 94.478528,831.7221 96.932515,831.7221 166.87117,792.4583 166.87117,792.4583 L 244.17178,772.8264 C 244.17178,772.8264 226.99387,767.30493 244.17178,772.8264 261.34969,778.34787 246.01227,807.79572 246.01227,807.79572 L 171.77914,824.36014 174.84663,833.56259 196.31902,842.15155 C 196.31902,842.15155 252.76074,816.99818 253.37423,820.06566 253.98773,823.13315 249.07975,853.1945 249.07975,853.1945 L 177.91411,869.14542 165.03067,867.30493 C 165.03067,867.30493 161.96319,879.57486 172.39264,880.18836 182.82209,880.80186 184.04908,889.39082 184.04908,889.39082 184.04908,889.39082 197.54601,880.18836 201.22699,880.18836 204.90798,880.18836 244.78528,863.01045 244.78528,863.01045 244.78528,863.01045 265.64417,886.32333 249.07975,896.13928 232.51534,905.95523 132.51534,920.67916 132.51534,920.67916 L 113.49693,916.99818 114.11043,924.36014 C 114.11043,924.36014 134.35583,944.60554 138.65031,944.60554 142.94479,944.60554 155.21472,940.92456 155.21472,940.92456 L 174.23313,927.42763 245.39877,913.31719 C 245.39877,913.31719 253.37423,912.0902 252.14724,931.10861 250.92025,950.12701 244.17178,1081.4154 244.17178,1081.4154 L 235.58282,1100.4338 241.71779,1121.9062 253.37423,1124.9736 261.34969,1103.5012 258.28221,1078.9614 265.03067,925.58713 270.55215,909.02272 369.93865,902.88775 C 369.93865,902.88775 408.58896,907.79572 409.20245,902.88775 409.81595,897.97977 412.88344,893.0718 412.88344,893.0718 412.88344,893.0718 401.84049,882.64235 396.31902,883.86934 390.79755,885.09634 350.30675,889.39082 350.30675,889.39082 L 262.57669,897.36628 268.71166,868.53192 334.35583,857.48898 C 334.35583,857.48898 358.89571,855.03499 353.98773,850.74051 353.98773,850.74051 338.03681,829.88162 323.92638,840.92456 309.81595,851.9675 266.87117,847.05953 266.87117,847.05953 L 261.96319,839.08407 262.57669,820.06566 334.96933,811.47671 C 334.96933,811.47671 338.03681,794.29879 315.33742,799.20677 292.63804,804.11474 267.48466,800.43376 267.48466,800.43376 L 265.64417,769.75891 273.00613,716.99818 323.31288,703.50125 331.90184,707.18223 313.49693,751.35401 344.17178,750.12701 374.23313,709.63621 C 374.23313,709.63621 388.95706,672.2129 346.62577,685.09634 304.29448,697.97977 276.07362,702.27425 276.07362,702.27425 L 274.23313,674.05339 C 274.23313,674.05339 255.21472,646.44603 247.23926,651.35401 239.2638,656.26198 246.06714,664.96566 246.06714,664.96566 Z"
       id="path4570"
       inkscape:connector-curvature="0"
       sodipodi:nodetypes="ccccccccccccccsccsccccccccscscscccscccscccccccccccccccccsccccsccccccccsccsc" />
    <path
       style="fill:#000000;stroke:#000000;stroke-width:1px;stroke-linecap:butt;stroke-linejoin:miter;stroke-opacity:1;fill-opacity:1"
       d="M 313.49693,751.35401 274.84663,757.48898 266.87117,756.26198 265.64417,769.75891 V 769.75891 L 301.84049,761.78345 C 301.84049,761.78345 308.58896,760.55646 305.52147,772.2129 302.45399,783.86934 292.63804,804.11474 292.63804,804.11474 L 312.88344,802.88775 310.42945,792.4583 334.96933,761.16996 C 334.96933,761.16996 417.17791,751.9675 417.17791,756.87548 417.17791,761.78345 450.30675,765.46444 450.30675,765.46444 450.30675,765.46444 474.84663,764.85094 470.55215,762.39695 466.25767,759.94296 457.66871,750.12701 457.66871,750.12701 L 463.19018,734.17609 453.37423,727.42763 437.42331,734.17609 388.34356,744.60554 344.17178,750.12701 Z"
       id="path4572"
       inkscape:connector-curvature="0" />
  </g>
</svg>
