<?xml version="1.0" encoding="UTF-8" standalone="no"?>
<!-- Created with Inkscape (http://www.inkscape.org/) -->

<svg
   xmlns:dc="http://purl.org/dc/elements/1.1/"
   xmlns:cc="http://creativecommons.org/ns#"
   xmlns:rdf="http://www.w3.org/1999/02/22-rdf-syntax-ns#"
   xmlns:svg="http://www.w3.org/2000/svg"
   xmlns="http://www.w3.org/2000/svg"
   xmlns:sodipodi="http://sodipodi.sourceforge.net/DTD/sodipodi-0.dtd"
   xmlns:inkscape="http://www.inkscape.org/namespaces/inkscape"
   width="513"
   height="513"
   viewBox="0 0 513 513.00002"
   version="1.1"
   id="svg8"
   inkscape:version="0.92.4 (5da689c313, 2019-01-14)"
   sodipodi:docname="U+7D19.svg">
  <defs
     id="defs2" />
  <sodipodi:namedview
     id="base"
     pagecolor="#ffffff"
     bordercolor="#666666"
     borderopacity="1.0"
     inkscape:pageopacity="0.0"
     inkscape:pageshadow="2"
     inkscape:zoom="1.48"
     inkscape:cx="233.49885"
     inkscape:cy="254.8288"
     inkscape:document-units="px"
     inkscape:current-layer="layer1"
     showgrid="false"
     units="px"
     inkscape:window-width="1440"
     inkscape:window-height="838"
     inkscape:window-x="-8"
     inkscape:window-y="-8"
     inkscape:window-maximized="1">
    <inkscape:grid
       type="xygrid"
       id="grid3724" />
  </sodipodi:namedview>
  <metadata
     id="metadata5">
    <rdf:RDF>
      <cc:Work
         rdf:about="">
        <dc:format>image/svg+xml</dc:format>
        <dc:type
           rdf:resource="http://purl.org/dc/dcmitype/StillImage" />
        <dc:title></dc:title>
      </cc:Work>
    </rdf:RDF>
  </metadata>
  <g
     inkscape:label="圖層 1"
     inkscape:groupmode="layer"
     id="layer1"
     transform="translate(0,-609.51965)">
    <path
       style="fill:#000000;stroke:none;stroke-width:1px;stroke-linecap:butt;stroke-linejoin:miter;stroke-opacity:1;fill-opacity:1"
       d="M 91.719075,684.5353 104.08569,716.4824 60.802533,766.97941 34.008196,774.19327 24.733234,777.28493 C 24.733234,777.28493 35.038748,807.17092 39.160953,807.17092 43.283159,807.17092 130.88003,779.34603 130.88003,779.34603 L 120.57451,797.89596 72.138598,842.20967 H 53.588673 C 53.588673,842.20967 36.069299,843.24022 39.160953,853.54573 42.252608,863.85125 51.52757,875.18731 62.863636,870.03456 74.199701,864.8818 124.69672,850.45408 124.69672,850.45408 L 126.75782,855.60684 86.566318,884.46228 92.749627,890.64558 C 92.749627,890.64558 157.67437,850.45408 158.70492,844.27077 159.73547,838.08746 173.13264,829.84305 173.13264,829.84305 L 169.01043,810.26257 162.82712,809.23202 135.00223,838.08746 91.719075,842.20967 162.82712,776.25438 180.3465,763.88776 C 180.3465,763.88776 186.5298,750.49059 180.3465,751.52114 174.16319,752.5517 167.97988,740.18508 167.97988,740.18508 L 144.2772,772.13217 117.48286,777.28493 73.16915,778.31548 98.932935,750.49059 110.269,740.18508 138.09389,732.97122 C 138.09389,732.97122 130.88003,708.23798 126.75782,708.23798 122.63562,708.23798 118.51341,687.62696 111.29955,690.71861 104.08569,693.81026 91.719075,684.5353 91.719075,684.5353 Z"
       id="path4699"
       inkscape:connector-curvature="0" />
    <path
       style="fill:#000000;stroke:none;stroke-width:1px;stroke-linecap:butt;stroke-linejoin:miter;stroke-opacity:1;fill-opacity:1"
       d="M 146.3383,894.76779 103.05514,911.25661 56.680327,925.68433 20.611028,928.77599 12.366617,926.71488 10.305514,930.83709 C 10.305514,930.83709 26.794337,958.66198 34.008196,958.66198 41.222056,958.66198 60.802533,950.41757 60.802533,950.41757 L 110.269,925.68433 147.36885,906.10385 Z"
       id="path4701"
       inkscape:connector-curvature="0" />
    <path
       style="fill:#000000;stroke:none;stroke-width:1px;stroke-linecap:butt;stroke-linejoin:miter;stroke-opacity:1;fill-opacity:1"
       d="M 193.74366,792.7432 203.01863,846.33187 198.89642,932.89819 178.28539,938.05095 175.19374,950.41757 187.56036,968.96749 206.11028,959.69253 249.39344,928.77599 284.43219,889.61503 283.40164,886.52338 256.6073,905.0733 214.35469,926.71488 223.62966,836.02636 C 223.62966,836.02636 233.93517,808.20147 225.69076,808.20147 217.44635,808.20147 207.14083,785.52934 201.98808,789.65155 196.83532,793.77375 193.74366,792.7432 193.74366,792.7432 Z"
       id="path4703"
       inkscape:connector-curvature="0" />
    <path
       style="fill:none;stroke:#000000;stroke-width:1px;stroke-linecap:butt;stroke-linejoin:miter;stroke-opacity:1"
       d="M 204.04918,749.46004 Z"
       id="path4711"
       inkscape:connector-curvature="0" />
    <path
       style="fill:none;stroke:#000000;stroke-width:1px;stroke-linecap:butt;stroke-linejoin:miter;stroke-opacity:1"
       d="M 204.04918,749.46004 Z"
       id="path4713"
       inkscape:connector-curvature="0" />
    <path
       style="fill:#000000;stroke:none;stroke-width:1px;stroke-linecap:butt;stroke-linejoin:miter;stroke-opacity:1;fill-opacity:1"
       d="M 318.91892,717.78992 C 318.91892,717.78992 311.48649,729.95208 308.78378,729.95208 306.08108,729.95208 268.24324,739.41154 268.24324,739.41154 L 229.72973,754.95208 204.04918,749.46004 217.56757,764.41154 237.83784,766.43857 264.86486,758.33046 286.48649,817.11424 247.2973,826.5737 238.51351,823.871 237.83784,831.30343 C 237.83784,831.30343 260.81081,838.06019 264.86486,838.06019 268.91892,838.06019 289.18919,830.62776 289.18919,830.62776 L 348.64865,925.89803 398.64865,981.30343 433.78378,1015.7629 475,1029.2764 487.16216,1026.5737 493.24324,990.76289 493.91892,971.84397 488.51351,969.14127 475.67568,986.70884 467.56757,995.49262 447.97297,994.81695 391.21622,961.03316 333.10811,886.70884 307.43243,823.19533 350,813.06019 C 350,813.06019 370.94595,817.11424 377.02703,808.33046 383.10811,799.54668 364.18919,789.41154 357.43243,790.76289 350.67568,792.11424 320.27027,804.95208 320.27027,804.95208 L 302.02703,809.68181 283.10811,753.60073 C 283.10811,753.60073 308.78378,740.76289 315.54054,743.4656 322.2973,746.1683 365.54054,734.00614 365.54054,734.00614 L 358.10811,719.81695 335.13514,716.43857 Z"
       id="path4715"
       inkscape:connector-curvature="0" />
  </g>
</svg>
