<?xml version="1.0" encoding="UTF-8" standalone="no"?>
<!-- Created with Inkscape (http://www.inkscape.org/) -->

<svg
   xmlns:dc="http://purl.org/dc/elements/1.1/"
   xmlns:cc="http://creativecommons.org/ns#"
   xmlns:rdf="http://www.w3.org/1999/02/22-rdf-syntax-ns#"
   xmlns:svg="http://www.w3.org/2000/svg"
   xmlns="http://www.w3.org/2000/svg"
   xmlns:sodipodi="http://sodipodi.sourceforge.net/DTD/sodipodi-0.dtd"
   xmlns:inkscape="http://www.inkscape.org/namespaces/inkscape"
   width="543"
   height="547"
   viewBox="0 0 54700 547.00002"
   version="1.1"
   id="svg8"
   inkscape:version="0.92.4 (5da689c313, 2019-01-14)"
   sodipodi:docname="U+91E3.svg">
  <defs
     id="defs2" />
  <sodipodi:namedview
     id="base"
     pagecolor="#ffffff"
     bordercolor="#666666"
     borderopacity="1.0"
     inkscape:pageopacity="0.0"
     inkscape:pageshadow="2"
     inkscape:zoom="0.97035431"
     inkscape:cx="233.49885"
     inkscape:cy="335.56332"
     inkscape:document-units="px"
     inkscape:current-layer="layer1"
     showgrid="false"
     units="px"
     inkscape:window-width="1440"
     inkscape:window-height="838"
     inkscape:window-x="-8"
     inkscape:window-y="-8"
     inkscape:window-maximized="1"
     viewbox-width="54700">
    <inkscape:grid
       type="xygrid"
       id="grid3724" />
  </sodipodi:namedview>
  <metadata
     id="metadata5">
    <rdf:RDF>
      <cc:Work
         rdf:about="">
        <dc:format>image/svg+xml</dc:format>
        <dc:type
           rdf:resource="http://purl.org/dc/dcmitype/StillImage" />
        <dc:title></dc:title>
      </cc:Work>
    </rdf:RDF>
  </metadata>
  <g
     inkscape:label="圖層 1"
     inkscape:groupmode="layer"
     id="layer1"
     transform="translate(0,621.32013)">
    <path
       style="fill:#000000;stroke:none;stroke-width:100.73664856px;stroke-linecap:butt;stroke-linejoin:miter;stroke-opacity:1;fill-opacity:1"
       d="M 17856.059,-21900.508 C 17856.059,-21900.508 20762.859,-20447.107 20347.603,-20031.85 19932.345,-19616.593 17025.545,-14425.878 16298.844,-14529.693 15572.144,-14633.507 8408.958,-6535.9921 7163.1864,-6535.9921 5917.4149,-6535.9921 6332.6721,-6016.9203 6332.6721,-6016.9203 6332.6721,-6016.9203 3010.6146,-4355.8918 2595.3574,-4667.3342 2180.1003,-4978.7777 830.51438,-4355.8918 830.51438,-4355.8918 L 3010.6146,-3213.9341 5190.7148,-3940.6342 11627.201,-7158.878 14637.816,-11622.893 18375.131,-14425.878 20659.045,-18370.821 21904.817,-18889.893 22320.073,-20343.293 20866.673,-21589.065 18375.131,-22627.208 Z"
       id="path4739"
       inkscape:connector-curvature="0" />
    <path
       style="fill:#000000;stroke:none;stroke-width:100.73664856px;stroke-linecap:butt;stroke-linejoin:miter;stroke-opacity:1;fill-opacity:1"
       d="M 24811.617,-17436.492 26784.088,-15567.836 28964.188,-15775.464 29068.003,-17021.236 C 29068.003,-17021.236 26887.902,-19824.222 25745.946,-19408.964 24603.988,-18993.707 24500.174,-19720.407 24500.174,-19720.407 24500.174,-19720.407 22807.739,-19207.234 23981.102,-18059.379 28756.56,-13387.735 24811.617,-17436.492 24811.617,-17436.492 Z"
       id="path4741"
       inkscape:connector-curvature="0"
       sodipodi:nodetypes="ccccccsc" />
    <path
       style="fill:#000000;stroke:none;stroke-width:100.73664856px;stroke-linecap:butt;stroke-linejoin:miter;stroke-opacity:1;fill-opacity:1"
       d="M 16195.03,-8612.2782 18478.945,-6328.3627 20036.159,-3317.7482 14949.258,-1760.5339 14118.744,-2487.234 12872.972,-2383.4198 13495.858,-1033.8338 15468.33,731.00885 17752.245,-1137.648 19101.831,-1864.348 C 19101.831,-1864.348 20762.859,-1345.2773 20243.787,211.93707 19724.717,1769.1524 19932.345,8724.7098 19932.345,8724.7098 L 7889.8865,10904.81 7474.6293,11527.696 10173.801,13292.539 15364.516,11008.624 22527.703,9762.8524 H 25849.76 L 27406.974,9347.5958 27718.418,8932.3381 26887.902,7790.3814 H 24707.802 L 22527.703,8620.8957 V 7894.1956 L 25123.06,6233.1671 26887.902,4260.6951 28133.674,3014.9233 27718.418,1457.7089 25123.06,211.93707 25434.502,1872.9666 23877.288,5610.2812 21697.188,8828.524 21281.931,8517.0815 21904.817,834.823 22112.445,-2175.7915 26057.388,-3317.7482 25953.574,-4355.8918 24188.731,-4667.3342 22423.888,-4771.1484 21697.188,-4148.2625 19724.717,-7574.1346 23877.288,-9027.5348 24084.917,-10377.121 22527.703,-10065.677 19413.273,-8923.7206 H 17856.059 L 16921.73,-9131.3489 Z"
       id="path4743"
       inkscape:connector-curvature="0" />
    <path
       style="fill:#000000;stroke:none;stroke-width:100.73664856px;stroke-linecap:butt;stroke-linejoin:miter;stroke-opacity:1;fill-opacity:1"
       d="M 14326.372,3845.4375 15572.144,6752.2379 17752.245,8101.8239 18478.945,6544.6096 17336.987,4675.9518 15675.959,3741.6234 14949.258,3533.9951 Z"
       id="path4745"
       inkscape:connector-curvature="0" />
    <path
       style="fill:#000000;stroke:none;stroke-width:100.73664856px;stroke-linecap:butt;stroke-linejoin:miter;stroke-opacity:1;fill-opacity:1"
       d="M 34777.789,-19097.522 37061.704,-16398.35 C 37061.704,-16398.35 37788.404,-15567.836 37373.147,-13906.807 36957.889,-12245.778 35504.489,-10273.307 35504.489,-10273.307 L 36231.189,-9961.8632 39034.176,-12661.035 C 39034.176,-12661.035 40695.204,-16294.536 40072.318,-16294.536 39449.432,-16294.536 38411.29,-18889.893 37684.59,-18786.079 36957.889,-18682.264 35296.861,-19720.407 35296.861,-19720.407 Z"
       id="path4747"
       inkscape:connector-curvature="0" />
    <path
       style="fill:#000000;stroke:none;stroke-width:100.73664856px;stroke-linecap:butt;stroke-linejoin:miter;stroke-opacity:1;fill-opacity:1"
       d="M 34051.089,-3525.3775 C 34051.089,-3525.3775 34985.417,-722.39133 36127.375,-618.57718 37269.332,-514.76302 40695.204,-1968.1632 40695.204,-1968.1632 40695.204,-1968.1632 40902.832,-2591.0481 39449.432,-3110.1199 37996.032,-3629.1917 34051.089,-3525.3775 34051.089,-3525.3775 Z"
       id="path4749"
       inkscape:connector-curvature="0" />
    <path
       style="fill:#000000;stroke:none;stroke-width:100.73664856px;stroke-linecap:butt;stroke-linejoin:miter;stroke-opacity:1;fill-opacity:1"
       d="M 42875.304,-11000.007 49934.677,-11830.521 C 49934.677,-11830.521 51388.077,-11726.707 50765.191,-9338.9783 50142.305,-6951.2487 48585.091,4156.881 47650.762,4156.881 46716.433,4156.881 47546.947,4779.7669 47546.947,4779.7669 L 44847.776,8828.524 C 44847.776,8828.524 42563.862,9036.1523 42148.604,8620.8957 41733.348,8205.6381 37892.218,6233.1671 37892.218,6233.1671 H 37373.147 L 37892.218,7894.1956 C 37892.218,7894.1956 42044.79,11631.51 42252.418,13707.796 42460.048,15784.082 44224.89,14226.867 44224.89,14226.867 L 46924.062,10593.367 49623.233,3222.5526 52633.848,-8300.8347 53464.362,-10896.193 54606.32,-11519.078 54502.506,-13180.107 52841.477,-14010.621 51491.891,-14114.435 49934.677,-13283.921 44847.776,-12868.664 42356.232,-12453.407 41214.275,-12245.779 C 41214.275,-12245.779 37129.518,-11638.429 41006.646,-11207.636 42875.304,-11000.007 42875.304,-11000.007 42875.304,-11000.007 Z"
       id="path4751"
       inkscape:connector-curvature="0"
       sodipodi:nodetypes="ccssccccccscccccccccccccsc" />
  </g>
</svg>
