<?xml version="1.0" encoding="UTF-8" standalone="no"?>
<!-- Created with Inkscape (http://www.inkscape.org/) -->

<svg
   xmlns:dc="http://purl.org/dc/elements/1.1/"
   xmlns:cc="http://creativecommons.org/ns#"
   xmlns:rdf="http://www.w3.org/1999/02/22-rdf-syntax-ns#"
   xmlns:svg="http://www.w3.org/2000/svg"
   xmlns="http://www.w3.org/2000/svg"
   xmlns:sodipodi="http://sodipodi.sourceforge.net/DTD/sodipodi-0.dtd"
   xmlns:inkscape="http://www.inkscape.org/namespaces/inkscape"
   width="513"
   height="513"
   viewBox="0 0 513 513.00002"
   version="1.1"
   id="svg8"
   inkscape:version="0.92.4 (5da689c313, 2019-01-14)"
   sodipodi:docname="U+962E.svg">
  <defs
     id="defs2" />
  <sodipodi:namedview
     id="base"
     pagecolor="#ffffff"
     bordercolor="#666666"
     borderopacity="1.0"
     inkscape:pageopacity="0.0"
     inkscape:pageshadow="2"
     inkscape:zoom="1.64"
     inkscape:cx="179.96438"
     inkscape:cy="274.01081"
     inkscape:document-units="px"
     inkscape:current-layer="layer1"
     showgrid="false"
     units="px"
     inkscape:window-width="1920"
     inkscape:window-height="1017"
     inkscape:window-x="-8"
     inkscape:window-y="-8"
     inkscape:window-maximized="1">
    <inkscape:grid
       type="xygrid"
       id="grid826" />
  </sodipodi:namedview>
  <metadata
     id="metadata5">
    <rdf:RDF>
      <cc:Work
         rdf:about="">
        <dc:format>image/svg+xml</dc:format>
        <dc:type
           rdf:resource="http://purl.org/dc/dcmitype/StillImage" />
        <dc:title></dc:title>
      </cc:Work>
    </rdf:RDF>
  </metadata>
  <g
     inkscape:label="圖層 1"
     inkscape:groupmode="layer"
     id="layer1"
     transform="translate(0,-609.51965)">
    <path
       style="fill:#000000;stroke:#000000;stroke-width:1px;stroke-linecap:butt;stroke-linejoin:miter;stroke-opacity:1;fill-opacity:1"
       d="M 18.902439,704.83672 V 720.08063 C 18.902439,720.08063 39.02439,746.30014 40.853659,745.69038 42.682927,745.08063 66.463415,731.05624 66.463415,731.05624 L 81.707317,721.30014 121.34146,703.61721 107.92683,738.37331 92.682927,760.32453 78.658537,770.08063 C 78.658537,770.08063 78.04878,778.61721 80.487805,778.61721 82.926829,778.61721 92.682927,768.86111 92.682927,768.86111 L 116.46341,746.90989 124.39024,734.10502 C 124.39024,734.10502 143.29268,723.12941 140.2439,721.30014 137.19512,719.47087 154.26829,698.73916 154.26829,698.73916 L 146.34146,673.73916 C 146.34146,673.73916 130.4878,663.98306 128.65854,670.69038 126.82927,677.3977 120.73171,680.44648 120.73171,680.44648 L 105.4878,685.93428 88.414634,692.6416 71.341463,698.12941 48.780488,706.05624 33.536585,705.44648 21.95122,699.34892 Z"
       id="path828"
       inkscape:connector-curvature="0" />
    <path
       style="fill:#000000;stroke:#000000;stroke-width:1px;stroke-linecap:butt;stroke-linejoin:miter;stroke-opacity:1;fill-opacity:1"
       d="M 90.243902,779.22697 103.04878,795.69038 117.68293,809.71477 C 117.68293,809.71477 125.60976,821.30014 117.68293,829.22697 109.7561,837.1538 81.707317,829.22697 81.707317,829.22697 L 68.902439,824.95867 C 68.902439,824.95867 58.536585,823.73916 64.634146,833.49526 70.731707,843.25136 85.365854,846.30014 85.365854,846.30014 L 115.2439,862.1538 132.92683,865.20258 C 132.92683,865.20258 143.29268,855.44648 143.29268,846.90989 143.29268,838.37331 142.68293,820.69038 145.12195,821.90989 147.56098,823.12941 134.7561,796.90989 126.82927,795.08063 118.90244,793.25136 117.68293,789.59282 98.170732,779.83672 78.658537,770.08063 90.243902,779.22697 90.243902,779.22697 Z"
       id="path830"
       inkscape:connector-curvature="0" />
    <path
       style="fill:#000000;stroke:#000000;stroke-width:1px;stroke-linecap:butt;stroke-linejoin:miter;stroke-opacity:1;fill-opacity:1"
       d="M 19.512195,760.32453 C 19.512195,760.32453 35.365854,785.32453 36.585366,798.12941 37.804878,810.93428 32.317073,812.1538 32.317073,812.1538 L 31.707317,835.93428 25,872.51965 23.780488,903.00745 20.731707,934.10502 19.512195,967.6416 C 19.512195,967.6416 12.195122,999.95867 6.097561,1003.0074 0,1006.0562 10.97561,1018.2514 10.97561,1018.2514 10.97561,1018.2514 13.414634,1034.7148 15.853659,1038.3733 18.292683,1042.0318 28.658537,1042.6416 27.439024,1032.8855 26.219512,1023.1294 27.439024,987.76355 27.439024,987.76355 27.439024,987.76355 26.219512,938.98306 28.658537,938.98306 31.097561,938.98306 31.707317,897.51965 31.707317,897.51965 L 33.536585,859.10502 42.682927,818.25136 51.829268,792.03185 C 51.829268,792.03185 45.731707,770.08063 31.097561,767.03185 16.463415,763.98306 19.512195,760.32453 19.512195,760.32453 Z"
       id="path832"
       inkscape:connector-curvature="0" />
    <path
       style="fill:#000000;stroke:#000000;stroke-width:1px;stroke-linecap:butt;stroke-linejoin:miter;stroke-opacity:1;fill-opacity:1"
       d="M 225.60976,713.98306 C 228.65854,714.59282 243.29268,734.71477 243.29268,734.71477 243.29268,734.71477 262.19512,735.32453 266.46341,732.27575 270.73171,729.22697 292.68293,721.30014 295.73171,721.30014 298.78049,721.30014 309.14634,712.1538 309.14634,712.1538 309.14634,712.1538 314.02439,695.69038 296.95122,699.34892 279.87805,703.00745 278.04878,707.8855 278.04878,707.8855 L 252.43902,713.98306 234.7561,712.1538 Z"
       id="path834"
       inkscape:connector-curvature="0" />
    <path
       style="fill:#000000;stroke:#000000;stroke-width:1px;stroke-linecap:butt;stroke-linejoin:miter;stroke-opacity:1;fill-opacity:1"
       d="M 181.09756,824.34892 C 181.09756,824.34892 180.4878,836.54404 190.2439,837.1538 200,837.76355 284.14634,803.00745 284.14634,803.00745 284.14634,803.00745 301.82927,767.03185 307.31707,769.47087 312.80488,771.90989 317.07317,753.61721 326.21951,773.73916 335.36585,793.86111 287.80488,823.12941 287.80488,823.12941 L 271.34146,832.8855 242.07317,881.05624 198.17073,953.00745 C 198.17073,953.00745 154.26829,1006.666 150.60976,1006.666 146.95122,1006.666 132.92683,1007.2758 144.5122,984.71477 156.09756,962.1538 164.63415,932.8855 164.63415,932.8855 L 170.12195,934.71477 173.78049,953.00745 C 173.78049,953.00745 217.07317,913.37331 214.02439,911.54404 210.97561,909.71477 254.87805,841.42209 254.87805,841.42209 L 187.80488,868.25136 C 187.80488,868.25136 152.43902,862.1538 157.92683,841.42209 163.41463,820.69038 181.09756,824.34892 181.09756,824.34892 Z"
       id="path836"
       inkscape:connector-curvature="0" />
    <path
       style="fill:#000000;stroke:#000000;stroke-width:1px;stroke-linecap:butt;stroke-linejoin:miter;stroke-opacity:1;fill-opacity:1"
       d="M 293.29268,835.32453 294.5122,856.05624 C 294.5122,856.05624 262.19512,937.76355 265.85366,938.98306 269.5122,940.20258 264.63415,970.69038 291.46341,999.34892 318.29268,1028.0075 460.97561,1010.3245 460.97561,1010.3245 460.97561,1010.3245 482.31707,999.95867 468.90244,968.86111 455.4878,937.76355 459.7561,935.93428 459.7561,935.93428 459.7561,935.93428 450,976.78794 444.5122,978.61721 439.02439,980.44648 393.29268,1000.5684 364.63415,994.47087 335.97561,988.37331 290.85366,988.98306 291.46341,979.83672 292.07317,970.69038 273.78049,986.54404 284.7561,935.93428 295.73171,885.32453 306.09756,859.10502 306.09756,859.10502 306.09756,859.10502 309.14634,843.86111 306.09756,843.25136 303.04878,842.6416 293.29268,835.32453 293.29268,835.32453 Z"
       id="path838"
       inkscape:connector-curvature="0" />
  </g>
</svg>
