<?xml version="1.0" standalone="no"?>
<!DOCTYPE svg PUBLIC "-//W3C//DTD SVG 1.1//EN" "http://www.w3.org/Graphics/SVG/1.1/DTD/svg11.dtd" >
<svg xmlns="http://www.w3.org/2000/svg" xmlns:xlink="http://www.w3.org/1999/xlink" version="1.1" viewBox="0 0 256 256">
  <g transform="matrix(1 0 0 -1 0 204)">
   <path fill="currentColor"
d="M69 174q13 -13 11 -19q-2 -25 -7 -45q20 8 27 11v10q-1 2 0 2h3q3 -5 1 -20q-6 -35 -17 -61q5 -5 10 -8q10 -8 18 -15q4 -2 0 -9q-2 -5 -11 8q-4 4 -12 11l-8 8q-22 -35 -48 -42q-6 -2 0 2q23 10 43 45q-17 15 -23 11q-2 -3 -6 3q-4 4 2 7q3 -2 12 26q-7 -4 -19 -11
q-10 -4 -15 -7q-14 -6 -19 0q-4 1 0 2q17 3 55 23q5 30 5 44q1 15 -3 23q-3 3 1 1zM99 118q-3 -2 -27 -15q-6 -15 -12 -32q-1 -1 3 -3q9 -5 18 -11q12 25 18 61zM204 182q2 -2 1 -3q0 -2 -3 -2q-10 0 -38 -30q6 -3 15 -2q3 -1 3 -3t-3 -3q-17 -6 -37 -23q-5 -5 -1 1
q10 11 16 17q1 1 1 2t-2 1h-6q-5 0 -1 7q2 3 10 4q14 16 25 29q2 3 1 4q0 2 -4 2q-21 -6 -32 -11q-7 -4 -15 1q-4 1 0 2q7 -1 20 4q14 5 31 6q1 0 2 1q4 0 13 -3q2 -1 4 -1zM237 111q2 -3 1 -5q-1 -1 -5 0q-7 0 -13 -2q-19 -8 -38 -10q-4 -1 -4 0t4 3q24 6 38 14q2 1 1 2
t-4 1q-54 -5 -104 -26q-8 -5 -8 5q-1 3 0 4t5 0q2 -2 15 2q55 16 92 18q10 0 20 -6zM157 97q7 -2 14 -3q2 0 2 -1v-2q-5 -4 -1 -14q10 -66 -2 -93q-3 -6 -10 -2q-19 10 -32 20q-4 4 2 1q20 -10 31 -13q7 -1 9 9q8 33 -5 82q-2 10 -9 14q-4 2 1 2z" />
  </g>

</svg>
