<?xml version="1.0" standalone="no"?>
<!DOCTYPE svg PUBLIC "-//W3C//DTD SVG 1.1//EN" "http://www.w3.org/Graphics/SVG/1.1/DTD/svg11.dtd" >
<svg xmlns="http://www.w3.org/2000/svg" xmlns:xlink="http://www.w3.org/1999/xlink" version="1.1" viewBox="0 0 256 256">
  <g transform="matrix(1 0 0 -1 0 204)">
   <path fill="currentColor"
d="M187 181v1q-25 -3 -55 -15q-3 -1 -13 1q-3 1 -4 2q-5 1 0 2q12 -2 25 2q25 8 47 11q5 1 19 -13q1 -3 1 -5q-1 -1 -3 -1q-10 1 -14 -9q-9 -12 -7 -53q3 -92 47 -105q3 -1 4 0t1 2q-1 2 -2 7q-1 14 -2 22q-1 7 2 1q9 -29 17 -38q1 -2 0 -2h-3q-1 1 -2 1q-6 0 -17 4
q-48 16 -49 117q-2 39 12 63q1 5 -4 5zM63 137q-2 4 2 2q9 -8 7 -9q-3 -5 -2 -22q5 3 13 5q2 -1 3 -2t-1 -2q-4 -2 -8 -5q-4 -4 -7 -5q-1 -3 -1 -7q-1 -16 -1 -30q3 3 8 7q7 7 15 14q6 6 2 -1q-32 -37 -52 -49q-14 -11 -23 -8q-5 1 0 2q16 4 42 30q0 12 -1 14q-2 2 2 5
q1 1 3 19q-16 -8 -24 -7q-3 0 -3 1t3 2q15 7 25 13v22q0 6 -2 11zM130 116q-2 1 2 1q9 -2 9 -4q0 -1 -1 -3v-4q16 4 23 0q8 -2 14 -16q-2 -4 -5 -3q-4 0 -9 -1q-10 -4 -20 -3q-3 1 0 2q11 -1 20 8q7 9 -5 13q-5 1 -18 -4v-28v-16q1 -20 3 -38q-2 -9 13 -20q-1 -2 -5 -3
q-3 1 -6 3h-2q-5 9 -9 13q-2 0 -1 6q-2 5 6 3q-1 17 -2 26q-1 11 -1 26q0 4 -1 14v12l-4 -2h-1q-3 -2 -10 -1q-3 0 -1 1q1 0 5 2l10 4q-2 9 -4 12zM98 150q-1 -4 -2 -7q-1 -1 -1 -2t-1 -2q0 -3 1 -5q0 -4 4 -1q3 3 7 0q0 -1 1 -1l6 -3q2 -2 2 -3t-2 -1q-6 -1 -5 -17
q3 -82 -35 -92q-7 -3 0 2q24 16 29 41q4 26 3 65l-1 1q-1 5 -2 4q-4 -1 -8 -8q-2 -3 -4 -3q-1 1 -2 4q-8 4 8 29q3 6 2 -1zM144 137q2 6 21 0q4 -2 2 -4q-1 -3 -2 -3l-1 1q-11 2 -19 -1q-14 -8 -26 -8q-3 0 -4 1q0 1 3 2q17 4 24 10zM83 167q4 -1 13 -3q2 -1 2 -2
q0 -2 -2 -1q-9 1 -36 -9q-13 -6 -26 -4q-5 0 0 2q13 0 36 9q7 2 8 6q1 3 5 2zM114 93q0 1 1 0q-3 -8 11 -14q0 -3 -2 -4q-3 -2 -5 0q-11 3 -5 18z" />
  </g>

</svg>
